0
SECTION
2
HEADER
0
ENDSEC
0
SECTION
2
TABLES
0
TABLE
2
LTYPE
0
LTYPE
2
Continuous
70
0
3
Solid line
72
65
73
0
40
0.000000
0
ENDTAB
0
TABLE
2
LAYER
0
LAYER
2
0
70
0
62
7
6
Continuous
0
LAYER
2
Parts
70
0
62
7
6
Continuous
0
LAYER
2
Imported_labels
70
0
62
7
6
Continuous
0
ENDTAB
0
TABLE
2
STYLE
0
STYLE
2
Standard
3
Arial
70
0
71
0
40
5.000000
41
1.000000
42
5.000000
50
0.000000
0
ENDTAB
0
TABLE
2
DIMSTYLE
0
DIMSTYLE
2
Standard
70
0
3

4

5

6
CLOSEDFILLED
7
CLOSEDFILLED
40
1.000000
41
2.000000
42
1.000000
43
5.000000
44
2.000000
45
0.000000
46
0.000000
47
0.000000
48
0.000000
140
5.000000
141
2.000000
142
0.000000
143
25.400000
144
1.000000
145
0.000000
146
1.000000
147
2.000000
71
0
72
0
73
0
74
1
75
0
76
0
77
0
78
0
170
0
171
4
172
0
173
1
174
0
175
0
176
0
177
-2
178
-2
271
4
272
4
273
1
274
4
275
0
280
0
281
0
282
0
283
1
288
0
0
ENDTAB
0
ENDSEC
0
SECTION
2
BLOCKS
0
BLOCK
8
0
2
_CLOSEDFILLED
70
0
10
0.000000
20
0.000000
3
_CLOSEDFILLED
0
SOLID
8
0
10
-1.000000
20
0.166667
30
0.000000
11
-1.000000
21
-0.166667
31
0.000000
12
0.000000
22
0.000000
32
0.000000
13
0.000000
23
0.000000
33
0.000000
0
ENDBLK
0
BLOCK
8
0
2
_CLOSEDBLANK
70
0
10
0.000000
20
0.000000
3
_CLOSEDBLANK
0
LINE
8
0
10
-1.000000
20
0.166667
30
0.000000
11
0.000000
21
0.000000
31
0.000000
0
LINE
8
0
10
0.000000
20
0.000000
30
0.000000
11
-1.000000
21
-0.166667
31
0.000000
0
LINE
8
0
10
-1.000000
20
0.166667
30
0.000000
11
-1.000000
21
-0.166667
31
0.000000
0
ENDBLK
0
BLOCK
8
0
2
_CLOSED
70
0
10
0.000000
20
0.000000
3
_CLOSED
0
LINE
8
0
10
-1.000000
20
0.166667
30
0.000000
11
0.000000
21
0.000000
31
0.000000
0
LINE
8
0
10
0.000000
20
0.000000
30
0.000000
11
-1.000000
21
-0.166667
31
0.000000
0
LINE
8
0
10
-1.000000
20
0.166667
30
0.000000
11
-1.000000
21
-0.166667
31
0.000000
0
LINE
8
0
10
0.000000
20
0.000000
30
0.000000
11
-1.000000
21
0.000000
31
0.000000
0
ENDBLK
0
BLOCK
8
0
2
_DOT
70
0
10
0.000000
20
0.000000
3
_DOT
0
POLYLINE
8
0
70
1
66
 1
10
0.0
20
0.0
30
0.000000
0
VERTEX
8
0
10
0.250000
20
0.000000
30
0.000000
42
1.000000
0
VERTEX
8
0
10
-0.250000
20
0.000000
30
0.000000
42
1.000000
0
SEQEND
8
0
0
LINE
8
0
10
-0.500000
20
0.000000
30
0.000000
11
-1.000000
21
0.000000
31
0.000000
0
ENDBLK
0
BLOCK
8
0
2
_ARCHTICK
70
0
10
0.000000
20
0.000000
3
_ARCHTICK
0
POLYLINE
8
0
70
0
66
 1
10
0.0
20
0.0
30
0.000000
0
VERTEX
8
0
10
0.500000
20
0.500000
30
0.000000
0
VERTEX
8
0
10
-0.500000
20
-0.500000
30
0.000000
0
SEQEND
8
0
0
ENDBLK
0
BLOCK
8
0
2
_OBLIQUE
70
0
10
0.000000
20
0.000000
3
_OBLIQUE
0
LINE
8
0
10
-0.500000
20
-0.500000
30
0.000000
11
0.500000
21
0.500000
31
0.000000
0
ENDBLK
0
BLOCK
8
0
2
_OPEN
70
0
10
0.000000
20
0.000000
3
_OPEN
0
LINE
8
0
10
-1.000000
20
0.166667
30
0.000000
11
0.000000
21
0.000000
31
0.000000
0
LINE
8
0
10
-1.000000
20
-0.166667
30
0.000000
11
0.000000
21
0.000000
31
0.000000
0
LINE
8
0
10
0.000000
20
0.000000
30
0.000000
11
-1.000000
21
0.000000
31
0.000000
0
ENDBLK
0
BLOCK
8
0
2
_ORIGIN
70
0
10
0.000000
20
0.000000
3
_ORIGIN
0
CIRCLE
8
0
10
0.000000
20
0.000000
40
0.500000
0
LINE
8
0
10
0.000000
20
0.000000
30
0.000000
11
-1.000000
21
0.000000
31
0.000000
0
ENDBLK
0
BLOCK
8
0
2
_ORIGIN2
70
0
10
0.000000
20
0.000000
3
_ORIGIN2
0
CIRCLE
8
0
10
0.000000
20
0.000000
40
0.500000
0
CIRCLE
8
0
10
0.000000
20
0.000000
40
0.250000
0
LINE
8
0
10
-0.500000
20
0.000000
30
0.000000
11
-1.000000
21
0.000000
31
0.000000
0
ENDBLK
0
BLOCK
8
0
2
_OPEN90
70
0
10
0.000000
20
0.000000
3
_OPEN90
0
LINE
8
0
10
-0.500000
20
0.500000
30
0.000000
11
0.000000
21
0.000000
31
0.000000
0
LINE
8
0
10
0.000000
20
0.000000
30
0.000000
11
-0.500000
21
-0.500000
31
0.000000
0
LINE
8
0
10
0.000000
20
0.000000
30
0.000000
11
-1.000000
21
0.000000
31
0.000000
0
ENDBLK
0
BLOCK
8
0
2
_OPEN30
70
0
10
0.000000
20
0.000000
3
_OPEN30
0
LINE
8
0
10
-1.000000
20
0.267949
30
0.000000
11
0.000000
21
0.000000
31
0.000000
0
LINE
8
0
10
0.000000
20
0.000000
30
0.000000
11
-1.000000
21
-0.267949
31
0.000000
0
LINE
8
0
10
0.000000
20
0.000000
30
0.000000
11
-1.000000
21
0.000000
31
0.000000
0
ENDBLK
0
BLOCK
8
0
2
_DOTSMALL
70
0
10
0.000000
20
0.000000
3
_DOTSMALL
0
POLYLINE
8
0
70
1
66
 1
10
0.0
20
0.0
30
0.000000
0
VERTEX
8
0
10
0.062500
20
0.000000
30
0.000000
42
1.000000
0
VERTEX
8
0
10
-0.062500
20
0.000000
30
0.000000
42
1.000000
0
SEQEND
8
0
0
ENDBLK
0
BLOCK
8
0
2
_DOTBLANK
70
0
10
0.000000
20
0.000000
3
_DOTBLANK
0
CIRCLE
8
0
10
0.000000
20
0.000000
40
0.500000
0
LINE
8
0
10
-0.500000
20
0.000000
30
0.000000
11
-1.000000
21
0.000000
31
0.000000
0
ENDBLK
0
BLOCK
8
0
2
_SMALL
70
0
10
0.000000
20
0.000000
3
_SMALL
0
CIRCLE
8
0
10
0.000000
20
0.000000
40
0.250000
0
ENDBLK
0
BLOCK
8
0
2
_BOXBLANK
70
0
10
0.000000
20
0.000000
3
_BOXBLANK
0
LINE
8
0
10
-0.500000
20
-0.500000
30
0.000000
11
0.500000
21
-0.500000
31
0.000000
0
LINE
8
0
10
0.500000
20
-0.500000
30
0.000000
11
0.500000
21
0.500000
31
0.000000
0
LINE
8
0
10
0.500000
20
0.500000
30
0.000000
11
-0.500000
21
0.500000
31
0.000000
0
LINE
8
0
10
-0.500000
20
0.500000
30
0.000000
11
-0.500000
21
-0.500000
31
0.000000
0
LINE
8
0
10
-0.500000
20
0.000000
30
0.000000
11
-1.000000
21
0.000000
31
0.000000
0
ENDBLK
0
BLOCK
8
0
2
_BOXFILLED
70
0
10
0.000000
20
0.000000
3
_BOXFILLED
0
SOLID
8
0
10
-0.500000
20
0.500000
30
0.000000
11
0.500000
21
0.500000
31
0.000000
12
-0.500000
22
-0.500000
32
0.000000
13
0.500000
23
-0.500000
33
0.000000
0
LINE
8
0
10
-0.500000
20
0.000000
30
0.000000
11
-1.000000
21
0.000000
31
0.000000
0
ENDBLK
0
BLOCK
8
0
2
_DATUMBLANK
70
0
10
0.000000
20
0.000000
3
_DATUMBLANK
0
LINE
8
0
10
0.000000
20
0.577350
30
0.000000
11
-1.000000
21
0.000000
31
0.000000
0
LINE
8
0
10
-1.000000
20
0.000000
30
0.000000
11
0.000000
21
-0.577350
31
0.000000
0
LINE
8
0
10
0.000000
20
-0.577350
30
0.000000
11
0.000000
21
0.577350
31
0.000000
0
ENDBLK
0
BLOCK
8
0
2
_DATUMFILLED
70
0
10
0.000000
20
0.000000
3
_DATUMFILLED
0
SOLID
8
0
10
0.000000
20
0.577350
30
0.000000
11
-1.000000
21
0.000000
31
0.000000
12
0.000000
22
-0.577350
32
0.000000
13
0.000000
23
-0.577350
33
0.000000
0
ENDBLK
0
BLOCK
8
0
2
_INTEGRAL
70
0
10
0.000000
20
0.000000
3
_INTEGRAL
0
ARC
8
0
10
0.444888
20
-0.091335
40
0.454167
50
102.000000
51
168.000000
0
ARC
8
0
10
-0.444888
20
0.091335
40
0.454167
50
282.000000
51
348.000000
0
ENDBLK
0
BLOCK
8
0
2
_NONE
70
0
10
0.000000
20
0.000000
3
_NONE
0
ENDBLK
0
BLOCK
8
Parts
2
*R
70
1
10
48.373092
20
84.209215
3
*R
0
POLYLINE
8
Parts
6
Continuous
70
0
66
 1
10
0.0
20
0.0
30
0.000000
0
VERTEX
8
Parts
10
206.970741
20
82.290131
30
0.000000
0
VERTEX
8
Parts
10
206.970741
20
95.543431
30
0.000000
0
VERTEX
8
Parts
10
219.470741
20
95.543431
30
0.000000
0
VERTEX
8
Parts
10
219.470741
20
80.786874
30
0.000000
0
VERTEX
8
Parts
10
220.294753
20
80.688401
30
0.000000
0
VERTEX
8
Parts
10
220.470741
20
82.178042
30
0.000000
0
VERTEX
8
Parts
10
221.066597
20
82.107647
30
0.000000
0
VERTEX
8
Parts
10
220.576251
20
81.561404
30
0.000000
42
0.010165
0
VERTEX
8
Parts
10
265.137370
20
77.078745
30
0.000000
42
-0.002730
0
VERTEX
8
Parts
10
221.026881
20
75.211360
30
0.000000
42
0.118737
0
VERTEX
8
Parts
10
221.070297
20
74.612587
30
0.000000
0
VERTEX
8
Parts
10
220.470741
20
74.589525
30
0.000000
0
VERTEX
8
Parts
10
220.413087
20
76.088417
30
0.000000
0
VERTEX
8
Parts
10
174.232754
20
74.419193
30
0.000000
0
VERTEX
8
Parts
10
136.858072
20
73.361201
30
0.000000
42
-0.010193
0
VERTEX
8
Parts
10
72.370623
20
73.076888
30
0.000000
0
VERTEX
8
Parts
10
57.875415
20
73.478334
30
0.000000
0
VERTEX
8
Parts
10
43.396794
20
74.279417
30
0.000000
42
-0.021818
0
VERTEX
8
Parts
10
32.834889
20
75.387027
30
0.000000
0
VERTEX
8
Parts
10
35.972706
20
78.116998
30
0.000000
0
VERTEX
8
Parts
10
31.730000
20
81.808247
30
0.000000
0
VERTEX
8
Parts
10
35.411392
20
83.630626
30
0.000000
0
VERTEX
8
Parts
10
37.970741
20
84.647969
30
0.000000
0
VERTEX
8
Parts
10
37.970741
20
95.543431
30
0.000000
0
VERTEX
8
Parts
10
50.470741
20
95.543431
30
0.000000
0
VERTEX
8
Parts
10
50.470741
20
87.968037
30
0.000000
42
-0.020154
0
VERTEX
8
Parts
10
59.776494
20
89.481975
30
0.000000
0
VERTEX
8
Parts
10
70.078188
20
90.555743
30
0.000000
0
VERTEX
8
Parts
10
80.413658
20
91.230978
30
0.000000
0
VERTEX
8
Parts
10
90.767491
20
91.506671
30
0.000000
42
-0.013467
0
VERTEX
8
Parts
10
119.491952
20
90.942905
30
0.000000
42
-0.009781
0
VERTEX
8
Parts
10
139.627131
20
89.591084
30
0.000000
0
VERTEX
8
Parts
10
162.557074
20
87.452442
30
0.000000
42
-0.005511
0
VERTEX
8
Parts
10
206.970741
20
82.290131
30
0.000000
0
SEQEND
8
0
0
POLYLINE
8
Parts
6
Continuous
70
0
66
 1
10
0.0
20
0.0
30
0.000000
0
VERTEX
8
Parts
10
193.840601
20
81.317565
30
0.000000
42
-0.203059
0
VERTEX
8
Parts
10
195.698043
20
81.911782
30
0.000000
0
VERTEX
8
Parts
10
196.651090
20
81.625946
30
0.000000
0
VERTEX
8
Parts
10
197.417169
20
80.991027
30
0.000000
0
VERTEX
8
Parts
10
197.874934
20
80.107596
30
0.000000
0
VERTEX
8
Parts
10
197.951875
20
79.115588
30
0.000000
42
-0.275273
0
VERTEX
8
Parts
10
196.382670
20
77.094395
30
0.000000
0
VERTEX
8
Parts
10
195.402545
20
76.923067
30
0.000000
0
VERTEX
8
Parts
10
194.433221
20
77.147592
30
0.000000
42
-0.309887
0
VERTEX
8
Parts
10
192.975115
20
79.569961
30
0.000000
42
-0.203059
0
VERTEX
8
Parts
10
193.840601
20
81.317565
30
0.000000
0
SEQEND
8
0
0
POLYLINE
8
Parts
6
Continuous
70
0
66
 1
10
0.0
20
0.0
30
0.000000
0
VERTEX
8
Parts
10
113.938932
20
83.390528
30
0.000000
0
VERTEX
8
Parts
10
114.068145
20
84.592721
30
0.000000
0
VERTEX
8
Parts
10
114.580023
20
85.688141
30
0.000000
42
-0.166549
0
VERTEX
8
Parts
10
116.495380
20
87.109910
30
0.000000
0
VERTEX
8
Parts
10
117.393154
20
87.277070
30
0.000000
42
-0.009649
0
VERTEX
8
Parts
10
152.577115
20
84.770446
30
0.000000
0
VERTEX
8
Parts
10
153.756029
20
84.509654
30
0.000000
0
VERTEX
8
Parts
10
154.786488
20
83.880367
30
0.000000
42
-0.166787
0
VERTEX
8
Parts
10
155.983963
20
81.821333
30
0.000000
42
-0.253105
0
VERTEX
8
Parts
10
154.953574
20
78.485308
30
0.000000
0
VERTEX
8
Parts
10
153.964030
20
77.793461
30
0.000000
0
VERTEX
8
Parts
10
152.814869
20
77.461539
30
0.000000
42
-0.002973
0
VERTEX
8
Parts
10
117.866851
20
76.767987
30
0.000000
0
VERTEX
8
Parts
10
116.662782
20
76.886171
30
0.000000
42
-0.166446
0
VERTEX
8
Parts
10
114.682949
20
78.219372
30
0.000000
0
VERTEX
8
Parts
10
114.254233
20
78.944969
30
0.000000
42
-0.117536
0
VERTEX
8
Parts
10
113.938932
20
81.145673
30
0.000000
0
VERTEX
8
Parts
10
113.938932
20
83.390528
30
0.000000
0
SEQEND
8
0
0
POLYLINE
8
Parts
6
Continuous
70
0
66
 1
10
0.0
20
0.0
30
0.000000
0
VERTEX
8
Parts
10
97.663763
20
83.844392
30
0.000000
0
VERTEX
8
Parts
10
97.188901
20
82.839278
30
0.000000
0
VERTEX
8
Parts
10
97.147972
20
81.749019
30
0.000000
0
VERTEX
8
Parts
10
97.546387
20
80.717772
30
0.000000
0
VERTEX
8
Parts
10
98.331466
20
79.881891
30
0.000000
0
VERTEX
8
Parts
10
99.399405
20
79.351898
30
0.000000
0
VERTEX
8
Parts
10
100.608998
20
79.197869
30
0.000000
0
VERTEX
8
Parts
10
101.800311
20
79.440172
30
0.000000
0
VERTEX
8
Parts
10
102.815825
20
80.046767
30
0.000000
0
VERTEX
8
Parts
10
103.521266
20
80.937450
30
0.000000
0
VERTEX
8
Parts
10
103.830902
20
82.195329
30
0.000000
0
VERTEX
8
Parts
10
103.608758
20
83.268019
30
0.000000
0
VERTEX
8
Parts
10
102.971698
20
84.198875
30
0.000000
0
VERTEX
8
Parts
10
102.003956
20
84.864818
30
0.000000
0
VERTEX
8
Parts
10
100.833490
20
85.177796
30
0.000000
0
VERTEX
8
Parts
10
99.615059
20
85.096425
30
0.000000
0
VERTEX
8
Parts
10
98.509769
20
84.631464
30
0.000000
0
VERTEX
8
Parts
10
97.663763
20
83.844392
30
0.000000
0
SEQEND
8
0
0
POLYLINE
8
Parts
6
Continuous
70
0
66
 1
10
0.0
20
0.0
30
0.000000
0
VERTEX
8
Parts
10
84.272134
20
76.949996
30
0.000000
42
-0.007977
0
VERTEX
8
Parts
10
63.138004
20
77.423621
30
0.000000
0
VERTEX
8
Parts
10
61.866680
20
77.558513
30
0.000000
0
VERTEX
8
Parts
10
60.698265
20
78.077423
30
0.000000
42
-0.157401
0
VERTEX
8
Parts
10
59.101249
20
80.034289
30
0.000000
0
VERTEX
8
Parts
10
58.827086
20
81.283007
30
0.000000
42
-0.157401
0
VERTEX
8
Parts
10
59.457453
20
83.728906
30
0.000000
0
VERTEX
8
Parts
10
60.301023
20
84.689557
30
0.000000
42
-0.119343
0
VERTEX
8
Parts
10
62.037857
20
85.542550
30
0.000000
0
VERTEX
8
Parts
10
72.143016
20
86.533871
30
0.000000
42
-0.008429
0
VERTEX
8
Parts
10
83.576448
20
87.227578
30
0.000000
0
VERTEX
8
Parts
10
84.858686
20
87.171653
30
0.000000
0
VERTEX
8
Parts
10
86.062285
20
86.725996
30
0.000000
42
-0.114394
0
VERTEX
8
Parts
10
87.446804
20
85.467052
30
0.000000
0
VERTEX
8
Parts
10
88.009427
20
84.260786
30
0.000000
42
-0.067475
0
VERTEX
8
Parts
10
88.067777
20
80.109129
30
0.000000
0
VERTEX
8
Parts
10
87.579987
20
78.925058
30
0.000000
0
VERTEX
8
Parts
10
86.752556
20
77.947653
30
0.000000
0
VERTEX
8
Parts
10
85.665236
20
77.271121
30
0.000000
42
-0.087307
0
VERTEX
8
Parts
10
84.272134
20
76.949996
30
0.000000
0
SEQEND
8
0
0
POLYLINE
8
Parts
6
Continuous
70
0
66
 1
10
0.0
20
0.0
30
0.000000
0
VERTEX
8
Parts
10
47.417169
20
82.052966
30
0.000000
0
VERTEX
8
Parts
10
46.651090
20
82.687885
30
0.000000
0
VERTEX
8
Parts
10
45.698043
20
82.973721
30
0.000000
0
VERTEX
8
Parts
10
44.708992
20
82.865197
30
0.000000
42
0.203059
0
VERTEX
8
Parts
10
43.230425
20
81.593574
30
0.000000
0
VERTEX
8
Parts
10
42.975115
20
80.631900
30
0.000000
42
0.309887
0
VERTEX
8
Parts
10
44.433221
20
78.209531
30
0.000000
0
VERTEX
8
Parts
10
45.402545
20
77.985006
30
0.000000
42
0.275273
0
VERTEX
8
Parts
10
47.635804
20
79.234075
30
0.000000
0
VERTEX
8
Parts
10
47.951875
20
80.177526
30
0.000000
42
0.203059
0
VERTEX
8
Parts
10
47.417169
20
82.052966
30
0.000000
0
SEQEND
8
0
0
ENDBLK
0
BLOCK
8
Parts
2
*R1
70
1
10
22.524254
20
116.366461
3
*R1
0
POLYLINE
8
Parts
6
Continuous
70
0
66
 1
10
0.0
20
0.0
30
0.000000
0
VERTEX
8
Parts
10
30.873324
20
121.008857
30
0.000000
0
VERTEX
8
Parts
10
24.361852
20
120.021634
30
0.000000
0
VERTEX
8
Parts
10
22.114068
20
119.586105
30
0.000000
0
VERTEX
8
Parts
10
22.114068
20
127.136652
30
0.000000
0
VERTEX
8
Parts
10
10.364068
20
127.187921
30
0.000000
0
VERTEX
8
Parts
10
10.364068
20
116.458240
30
0.000000
42
0.038284
0
VERTEX
8
Parts
10
5.000000
20
114.056036
30
0.000000
0
VERTEX
8
Parts
10
9.116033
20
110.474996
30
0.000000
0
VERTEX
8
Parts
10
6.067343
20
107.822567
30
0.000000
0
VERTEX
8
Parts
10
7.603479
20
107.630956
30
0.000000
42
0.019664
0
VERTEX
8
Parts
10
26.471138
20
106.259675
30
0.000000
0
VERTEX
8
Parts
10
47.046633
20
105.703572
30
0.000000
42
0.008072
0
VERTEX
8
Parts
10
81.245095
20
105.663918
30
0.000000
0
VERTEX
8
Parts
10
116.567626
20
106.365442
30
0.000000
0
VERTEX
8
Parts
10
159.482439
20
107.756321
30
0.000000
0
VERTEX
8
Parts
10
178.557140
20
108.472087
30
0.000000
0
VERTEX
8
Parts
10
178.614068
20
106.973168
30
0.000000
0
VERTEX
8
Parts
10
179.213635
20
106.995939
30
0.000000
42
0.205305
0
VERTEX
8
Parts
10
178.912145
20
107.584921
30
0.000000
0
VERTEX
8
Parts
10
199.476222
20
108.392741
30
0.000000
42
0.002443
0
VERTEX
8
Parts
10
223.326586
20
109.445326
30
0.000000
42
-0.010270
0
VERTEX
8
Parts
10
179.114307
20
113.960379
30
0.000000
42
-0.111683
0
VERTEX
8
Parts
10
179.209843
20
114.553236
30
0.000000
0
VERTEX
8
Parts
10
178.614068
20
114.624311
30
0.000000
0
VERTEX
8
Parts
10
178.436382
20
113.134872
30
0.000000
0
VERTEX
8
Parts
10
177.614068
20
113.233801
30
0.000000
0
VERTEX
8
Parts
10
177.614068
20
126.458151
30
0.000000
0
VERTEX
8
Parts
10
165.864068
20
126.509420
30
0.000000
0
VERTEX
8
Parts
10
165.864068
20
114.655421
30
0.000000
42
0.002562
0
VERTEX
8
Parts
10
134.950921
20
118.312207
30
0.000000
42
0.005443
0
VERTEX
8
Parts
10
107.047136
20
121.017769
30
0.000000
0
VERTEX
8
Parts
10
93.084520
20
122.053813
30
0.000000
0
VERTEX
8
Parts
10
79.098007
20
122.690592
30
0.000000
0
VERTEX
8
Parts
10
65.099011
20
122.927586
30
0.000000
42
0.021727
0
VERTEX
8
Parts
10
40.394824
20
122.002118
30
0.000000
0
VERTEX
8
Parts
10
30.873324
20
121.008857
30
0.000000
0
SEQEND
8
0
0
POLYLINE
8
Parts
6
Continuous
70
0
66
 1
10
0.0
20
0.0
30
0.000000
0
VERTEX
8
Parts
10
128.060496
20
114.508523
30
0.000000
0
VERTEX
8
Parts
10
127.294417
20
115.143442
30
0.000000
0
VERTEX
8
Parts
10
126.341370
20
115.429278
30
0.000000
0
VERTEX
8
Parts
10
125.352319
20
115.320754
30
0.000000
0
VERTEX
8
Parts
10
124.483928
20
114.835060
30
0.000000
0
VERTEX
8
Parts
10
123.873752
20
114.049131
30
0.000000
42
0.203059
0
VERTEX
8
Parts
10
123.758439
20
112.102367
30
0.000000
0
VERTEX
8
Parts
10
124.271567
20
111.249901
30
0.000000
0
VERTEX
8
Parts
10
125.076548
20
110.665088
30
0.000000
0
VERTEX
8
Parts
10
126.045872
20
110.440563
30
0.000000
42
0.203059
0
VERTEX
8
Parts
10
127.861674
20
111.151932
30
0.000000
42
0.170064
0
VERTEX
8
Parts
10
128.595202
20
112.633083
30
0.000000
0
VERTEX
8
Parts
10
128.518261
20
113.625091
30
0.000000
0
VERTEX
8
Parts
10
128.060496
20
114.508523
30
0.000000
0
SEQEND
8
0
0
POLYLINE
8
Parts
6
Continuous
70
0
66
 1
10
0.0
20
0.0
30
0.000000
0
VERTEX
8
Parts
10
81.839668
20
114.897490
30
0.000000
0
VERTEX
8
Parts
10
81.915926
20
116.086448
30
0.000000
0
VERTEX
8
Parts
10
82.378788
20
117.184262
30
0.000000
0
VERTEX
8
Parts
10
83.176806
20
118.068910
30
0.000000
42
-0.162513
0
VERTEX
8
Parts
10
85.305045
20
118.838911
30
0.000000
42
-0.007758
0
VERTEX
8
Parts
10
113.076191
20
116.919784
30
0.000000
0
VERTEX
8
Parts
10
114.241913
20
116.700544
30
0.000000
0
VERTEX
8
Parts
10
115.269910
20
116.108770
30
0.000000
0
VERTEX
8
Parts
10
116.044923
20
115.210812
30
0.000000
0
VERTEX
8
Parts
10
116.480058
20
114.107348
30
0.000000
0
VERTEX
8
Parts
10
116.526528
20
112.922099
30
0.000000
0
VERTEX
8
Parts
10
116.179122
20
111.787955
30
0.000000
0
VERTEX
8
Parts
10
115.476792
20
110.832075
30
0.000000
42
-0.168757
0
VERTEX
8
Parts
10
113.367855
20
109.853230
30
0.000000
0
VERTEX
8
Parts
10
85.802337
20
109.317114
30
0.000000
0
VERTEX
8
Parts
10
84.609700
20
109.388970
30
0.000000
0
VERTEX
8
Parts
10
83.506528
20
109.847837
30
0.000000
42
-0.131874
0
VERTEX
8
Parts
10
82.239984
20
111.214549
30
0.000000
0
VERTEX
8
Parts
10
81.859228
20
112.480736
30
0.000000
42
-0.009069
0
VERTEX
8
Parts
10
81.839668
20
114.897490
30
0.000000
0
SEQEND
8
0
0
POLYLINE
8
Parts
6
Continuous
70
0
66
 1
10
0.0
20
0.0
30
0.000000
0
VERTEX
8
Parts
10
66.144590
20
115.898230
30
0.000000
0
VERTEX
8
Parts
10
66.990596
20
116.685302
30
0.000000
0
VERTEX
8
Parts
10
68.095886
20
117.150263
30
0.000000
0
VERTEX
8
Parts
10
69.314317
20
117.231634
30
0.000000
0
VERTEX
8
Parts
10
70.484783
20
116.918656
30
0.000000
0
VERTEX
8
Parts
10
71.452525
20
116.252713
30
0.000000
0
VERTEX
8
Parts
10
72.089585
20
115.321857
30
0.000000
0
VERTEX
8
Parts
10
72.304188
20
114.048290
30
0.000000
0
VERTEX
8
Parts
10
72.002093
20
112.991288
30
0.000000
0
VERTEX
8
Parts
10
71.296652
20
112.100605
30
0.000000
0
VERTEX
8
Parts
10
70.281138
20
111.494009
30
0.000000
0
VERTEX
8
Parts
10
69.089825
20
111.251707
30
0.000000
0
VERTEX
8
Parts
10
67.880232
20
111.405736
30
0.000000
0
VERTEX
8
Parts
10
66.812293
20
111.935729
30
0.000000
0
VERTEX
8
Parts
10
66.027214
20
112.771610
30
0.000000
0
VERTEX
8
Parts
10
65.628799
20
113.802857
30
0.000000
0
VERTEX
8
Parts
10
65.669728
20
114.893116
30
0.000000
0
VERTEX
8
Parts
10
66.144590
20
115.898230
30
0.000000
0
SEQEND
8
0
0
POLYLINE
8
Parts
6
Continuous
70
0
66
 1
10
0.0
20
0.0
30
0.000000
0
VERTEX
8
Parts
10
38.078689
20
109.816550
30
0.000000
42
-0.160544
0
VERTEX
8
Parts
10
35.686680
20
110.455140
30
0.000000
0
VERTEX
8
Parts
10
34.759513
20
111.299078
30
0.000000
42
-0.160544
0
VERTEX
8
Parts
10
33.899417
20
113.620659
30
0.000000
42
-0.160544
0
VERTEX
8
Parts
10
34.588231
20
115.998691
30
0.000000
0
VERTEX
8
Parts
10
35.451504
20
116.907884
30
0.000000
42
-0.117856
0
VERTEX
8
Parts
10
37.132363
20
117.653444
30
0.000000
42
-0.013978
0
VERTEX
8
Parts
10
52.414619
20
118.766907
30
0.000000
0
VERTEX
8
Parts
10
53.675449
20
118.743336
30
0.000000
0
VERTEX
8
Parts
10
54.866303
20
118.328472
30
0.000000
0
VERTEX
8
Parts
10
55.868860
20
117.563536
30
0.000000
0
VERTEX
8
Parts
10
56.583505
20
116.524532
30
0.000000
0
VERTEX
8
Parts
10
56.939231
20
115.314695
30
0.000000
42
-0.029783
0
VERTEX
8
Parts
10
56.882162
20
112.624109
30
0.000000
0
VERTEX
8
Parts
10
56.420320
20
111.453249
30
0.000000
0
VERTEX
8
Parts
10
55.616382
20
110.484799
30
0.000000
42
-0.155352
0
VERTEX
8
Parts
10
53.399639
20
109.518310
30
0.000000
42
-0.007082
0
VERTEX
8
Parts
10
38.078689
20
109.816550
30
0.000000
0
SEQEND
8
0
0
ENDBLK
0
BLOCK
8
Parts
2
*R2
70
1
10
106.622917
20
148.471340
3
*R2
0
POLYLINE
8
Parts
6
Continuous
70
0
66
 1
10
0.0
20
0.0
30
0.000000
0
VERTEX
8
Parts
10
28.239539
20
152.396946
30
0.000000
42
0.018953
0
VERTEX
8
Parts
10
20.847305
20
151.200338
30
0.000000
0
VERTEX
8
Parts
10
20.847305
20
158.631685
30
0.000000
0
VERTEX
8
Parts
10
9.847305
20
158.727681
30
0.000000
0
VERTEX
8
Parts
10
9.847305
20
148.318323
30
0.000000
42
0.040140
0
VERTEX
8
Parts
10
5.000000
20
146.222824
30
0.000000
0
VERTEX
8
Parts
10
8.985309
20
142.755517
30
0.000000
0
VERTEX
8
Parts
10
6.091939
20
140.238220
30
0.000000
0
VERTEX
8
Parts
10
11.463906
20
139.632793
30
0.000000
42
0.013017
0
VERTEX
8
Parts
10
40.516767
20
138.355439
30
0.000000
42
0.008245
0
VERTEX
8
Parts
10
91.545314
20
138.509361
30
0.000000
0
VERTEX
8
Parts
10
103.594696
20
138.797574
30
0.000000
0
VERTEX
8
Parts
10
147.331944
20
140.172721
30
0.000000
0
VERTEX
8
Parts
10
163.426793
20
140.779519
30
0.000000
0
VERTEX
8
Parts
10
163.483344
20
139.280585
30
0.000000
0
VERTEX
8
Parts
10
164.082917
20
139.303205
30
0.000000
0
VERTEX
8
Parts
10
163.969151
20
139.899340
30
0.000000
42
0.002611
0
VERTEX
8
Parts
10
208.245833
20
141.735021
30
0.000000
0
VERTEX
8
Parts
10
187.593238
20
143.649294
30
0.000000
42
-0.005601
0
VERTEX
8
Parts
10
163.654417
20
146.372473
30
0.000000
0
VERTEX
8
Parts
10
164.079030
20
146.925622
30
0.000000
0
VERTEX
8
Parts
10
163.483344
20
146.997445
30
0.000000
0
VERTEX
8
Parts
10
163.303788
20
145.508230
30
0.000000
0
VERTEX
8
Parts
10
162.483344
20
145.607527
30
0.000000
0
VERTEX
8
Parts
10
162.483344
20
157.395646
30
0.000000
0
VERTEX
8
Parts
10
151.483344
20
157.491642
30
0.000000
0
VERTEX
8
Parts
10
151.483344
20
146.946239
30
0.000000
42
0.002296
0
VERTEX
8
Parts
10
127.487681
20
149.779191
30
0.000000
0
VERTEX
8
Parts
10
105.006312
20
152.023828
30
0.000000
42
0.014196
0
VERTEX
8
Parts
10
73.897800
20
154.027933
30
0.000000
0
VERTEX
8
Parts
10
60.297978
20
154.253767
30
0.000000
42
0.022155
0
VERTEX
8
Parts
10
37.069250
20
153.341867
30
0.000000
0
VERTEX
8
Parts
10
28.239539
20
152.396946
30
0.000000
0
SEQEND
8
0
0
POLYLINE
8
Parts
6
Continuous
70
0
66
 1
10
0.0
20
0.0
30
0.000000
0
VERTEX
8
Parts
10
76.466352
20
146.625324
30
0.000000
0
VERTEX
8
Parts
10
76.575163
20
147.786777
30
0.000000
42
-0.172717
0
VERTEX
8
Parts
10
77.885603
20
149.675778
30
0.000000
0
VERTEX
8
Parts
10
78.935395
20
150.184451
30
0.000000
0
VERTEX
8
Parts
10
79.781439
20
150.316579
30
0.000000
42
-0.006171
0
VERTEX
8
Parts
10
99.996699
20
148.982634
30
0.000000
0
VERTEX
8
Parts
10
101.151012
20
148.822979
30
0.000000
0
VERTEX
8
Parts
10
102.184704
20
148.285013
30
0.000000
42
-0.172903
0
VERTEX
8
Parts
10
103.438079
20
146.360672
30
0.000000
0
VERTEX
8
Parts
10
103.512232
20
145.197733
30
0.000000
0
VERTEX
8
Parts
10
103.191603
20
144.077410
30
0.000000
0
VERTEX
8
Parts
10
102.513419
20
143.129784
30
0.000000
42
-0.167067
0
VERTEX
8
Parts
10
100.508903
20
142.168040
30
0.000000
42
-0.001079
0
VERTEX
8
Parts
10
80.254511
20
141.706354
30
0.000000
0
VERTEX
8
Parts
10
79.084026
20
141.789044
30
0.000000
0
VERTEX
8
Parts
10
78.008153
20
142.257416
30
0.000000
42
-0.171691
0
VERTEX
8
Parts
10
76.608198
20
144.098589
30
0.000000
0
VERTEX
8
Parts
10
76.444461
20
145.260511
30
0.000000
42
0.036621
0
VERTEX
8
Parts
10
76.466352
20
146.625324
30
0.000000
0
SEQEND
8
0
0
POLYLINE
8
Parts
6
Continuous
70
0
66
 1
10
0.0
20
0.0
30
0.000000
0
VERTEX
8
Parts
10
61.351366
20
147.874597
30
0.000000
0
VERTEX
8
Parts
10
62.197372
20
148.661669
30
0.000000
0
VERTEX
8
Parts
10
63.302662
20
149.126629
30
0.000000
0
VERTEX
8
Parts
10
64.521093
20
149.208000
30
0.000000
0
VERTEX
8
Parts
10
65.691560
20
148.895023
30
0.000000
0
VERTEX
8
Parts
10
66.659301
20
148.229080
30
0.000000
0
VERTEX
8
Parts
10
67.296361
20
147.298223
30
0.000000
0
VERTEX
8
Parts
10
67.510964
20
146.024657
30
0.000000
0
VERTEX
8
Parts
10
67.208869
20
144.967655
30
0.000000
0
VERTEX
8
Parts
10
66.503428
20
144.076972
30
0.000000
0
VERTEX
8
Parts
10
65.487914
20
143.470376
30
0.000000
0
VERTEX
8
Parts
10
64.296601
20
143.228074
30
0.000000
0
VERTEX
8
Parts
10
63.087008
20
143.382102
30
0.000000
0
VERTEX
8
Parts
10
62.019069
20
143.912096
30
0.000000
0
VERTEX
8
Parts
10
61.233990
20
144.747977
30
0.000000
0
VERTEX
8
Parts
10
60.835575
20
145.779224
30
0.000000
0
VERTEX
8
Parts
10
60.876505
20
146.869483
30
0.000000
0
VERTEX
8
Parts
10
61.351366
20
147.874597
30
0.000000
0
SEQEND
8
0
0
POLYLINE
8
Parts
6
Continuous
70
0
66
 1
10
0.0
20
0.0
30
0.000000
0
VERTEX
8
Parts
10
49.057284
20
142.056245
30
0.000000
0
VERTEX
8
Parts
10
41.166081
20
142.185509
30
0.000000
0
VERTEX
8
Parts
10
39.943430
20
142.305371
30
0.000000
42
-0.248600
0
VERTEX
8
Parts
10
37.334716
20
144.723409
30
0.000000
0
VERTEX
8
Parts
10
37.122575
20
145.933466
30
0.000000
42
-0.248600
0
VERTEX
8
Parts
10
38.753161
20
149.094714
30
0.000000
42
-0.099597
0
VERTEX
8
Parts
10
40.128011
20
149.690182
30
0.000000
42
-0.010909
0
VERTEX
8
Parts
10
48.134666
20
150.232770
30
0.000000
0
VERTEX
8
Parts
10
49.366355
20
150.200743
30
0.000000
42
-0.163400
0
VERTEX
8
Parts
10
51.486571
20
149.009479
30
0.000000
0
VERTEX
8
Parts
10
52.154551
20
147.974159
30
0.000000
42
-0.114675
0
VERTEX
8
Parts
10
52.468734
20
146.273355
30
0.000000
0
VERTEX
8
Parts
10
52.399848
20
145.041087
30
0.000000
0
VERTEX
8
Parts
10
51.942936
20
143.894587
30
0.000000
0
VERTEX
8
Parts
10
51.145370
20
142.952719
30
0.000000
42
-0.151617
0
VERTEX
8
Parts
10
49.057284
20
142.056245
30
0.000000
0
SEQEND
8
0
0
ENDBLK
0
BLOCK
8
Parts
2
*R3
70
1
10
119.875083
20
177.611953
3
*R3
0
POLYLINE
8
Parts
6
Continuous
70
0
66
 1
10
0.0
20
0.0
30
0.000000
0
VERTEX
8
Parts
10
72.692641
20
182.640540
30
0.000000
0
VERTEX
8
Parts
10
63.419302
20
182.380149
30
0.000000
42
0.020276
0
VERTEX
8
Parts
10
46.045357
20
180.809171
30
0.000000
0
VERTEX
8
Parts
10
40.755873
20
179.963551
30
0.000000
0
VERTEX
8
Parts
10
40.755873
20
187.174727
30
0.000000
0
VERTEX
8
Parts
10
30.505873
20
187.308907
30
0.000000
0
VERTEX
8
Parts
10
30.505873
20
177.360425
30
0.000000
42
0.038217
0
VERTEX
8
Parts
10
25.790000
20
175.463914
30
0.000000
0
VERTEX
8
Parts
10
29.643878
20
172.110955
30
0.000000
0
VERTEX
8
Parts
10
26.885815
20
169.711379
30
0.000000
42
0.020032
0
VERTEX
8
Parts
10
33.128393
20
169.093406
30
0.000000
0
VERTEX
8
Parts
10
47.521587
20
168.339417
30
0.000000
0
VERTEX
8
Parts
10
63.577009
20
167.970088
30
0.000000
42
0.009976
0
VERTEX
8
Parts
10
125.738342
20
168.687639
30
0.000000
0
VERTEX
8
Parts
10
169.085358
20
170.162316
30
0.000000
0
VERTEX
8
Parts
10
169.141912
20
168.663382
30
0.000000
0
VERTEX
8
Parts
10
169.737910
20
168.732571
30
0.000000
0
VERTEX
8
Parts
10
169.236238
20
169.267368
30
0.000000
42
0.001860
0
VERTEX
8
Parts
10
213.960165
20
171.100298
30
0.000000
0
VERTEX
8
Parts
10
193.325808
20
173.049495
30
0.000000
0
VERTEX
8
Parts
10
169.493460
20
175.802440
30
0.000000
0
VERTEX
8
Parts
10
169.737530
20
176.377193
30
0.000000
0
VERTEX
8
Parts
10
169.141912
20
176.449577
30
0.000000
0
VERTEX
8
Parts
10
168.960952
20
174.960533
30
0.000000
0
VERTEX
8
Parts
10
168.141912
20
175.060228
30
0.000000
0
VERTEX
8
Parts
10
168.141912
20
185.507152
30
0.000000
0
VERTEX
8
Parts
10
157.891912
20
185.641332
30
0.000000
0
VERTEX
8
Parts
10
157.891912
20
176.326674
30
0.000000
0
VERTEX
8
Parts
10
135.673709
20
178.874572
30
0.000000
0
VERTEX
8
Parts
10
115.696058
20
180.822695
30
0.000000
0
VERTEX
8
Parts
10
102.568791
20
181.831995
30
0.000000
0
VERTEX
8
Parts
10
89.416923
20
182.442075
30
0.000000
0
VERTEX
8
Parts
10
76.252592
20
182.652373
30
0.000000
0
VERTEX
8
Parts
10
72.692641
20
182.640540
30
0.000000
0
SEQEND
8
0
0
POLYLINE
8
Parts
6
Continuous
70
0
66
 1
10
0.0
20
0.0
30
0.000000
0
VERTEX
8
Parts
10
94.939638
20
178.864027
30
0.000000
42
-0.005536
0
VERTEX
8
Parts
10
107.148541
20
178.119858
30
0.000000
0
VERTEX
8
Parts
10
108.277733
20
177.948521
30
0.000000
42
-0.176466
0
VERTEX
8
Parts
10
110.034493
20
176.543550
30
0.000000
0
VERTEX
8
Parts
10
110.449845
20
175.479635
30
0.000000
42
-0.268166
0
VERTEX
8
Parts
10
109.395258
20
172.364942
30
0.000000
42
-0.146449
0
VERTEX
8
Parts
10
107.681866
20
171.580197
30
0.000000
0
VERTEX
8
Parts
10
95.604660
20
171.374192
30
0.000000
0
VERTEX
8
Parts
10
94.447895
20
171.442059
30
0.000000
42
-0.152662
0
VERTEX
8
Parts
10
92.710562
20
172.468786
30
0.000000
0
VERTEX
8
Parts
10
92.100922
20
173.481923
30
0.000000
0
VERTEX
8
Parts
10
91.861138
20
174.639772
30
0.000000
42
-0.009217
0
VERTEX
8
Parts
10
91.949333
20
176.316054
30
0.000000
0
VERTEX
8
Parts
10
92.402677
20
177.370934
30
0.000000
0
VERTEX
8
Parts
10
93.188164
20
178.208373
30
0.000000
42
-0.143703
0
VERTEX
8
Parts
10
94.939638
20
178.864027
30
0.000000
0
SEQEND
8
0
0
POLYLINE
8
Parts
6
Continuous
70
0
66
 1
10
0.0
20
0.0
30
0.000000
0
VERTEX
8
Parts
10
81.687628
20
177.946224
30
0.000000
0
VERTEX
8
Parts
10
80.517161
20
178.259201
30
0.000000
0
VERTEX
8
Parts
10
79.298731
20
178.177830
30
0.000000
0
VERTEX
8
Parts
10
78.193440
20
177.712869
30
0.000000
0
VERTEX
8
Parts
10
77.347434
20
176.925798
30
0.000000
0
VERTEX
8
Parts
10
76.872573
20
175.920683
30
0.000000
0
VERTEX
8
Parts
10
76.831644
20
174.830424
30
0.000000
0
VERTEX
8
Parts
10
77.230058
20
173.799177
30
0.000000
0
VERTEX
8
Parts
10
78.015137
20
172.963296
30
0.000000
0
VERTEX
8
Parts
10
79.083076
20
172.433303
30
0.000000
0
VERTEX
8
Parts
10
80.292670
20
172.279274
30
0.000000
0
VERTEX
8
Parts
10
81.483982
20
172.521577
30
0.000000
0
VERTEX
8
Parts
10
82.499496
20
173.128172
30
0.000000
0
VERTEX
8
Parts
10
83.204938
20
174.018855
30
0.000000
0
VERTEX
8
Parts
10
83.514573
20
175.276734
30
0.000000
0
VERTEX
8
Parts
10
83.292429
20
176.349424
30
0.000000
0
VERTEX
8
Parts
10
82.655370
20
177.280280
30
0.000000
0
VERTEX
8
Parts
10
81.687628
20
177.946224
30
0.000000
0
SEQEND
8
0
0
POLYLINE
8
Parts
6
Continuous
70
0
66
 1
10
0.0
20
0.0
30
0.000000
0
VERTEX
8
Parts
10
50.888524
20
171.802673
30
0.000000
42
-0.187651
0
VERTEX
8
Parts
10
48.876464
20
172.449034
30
0.000000
0
VERTEX
8
Parts
10
48.180999
20
173.268905
30
0.000000
0
VERTEX
8
Parts
10
47.830079
20
174.285131
30
0.000000
0
VERTEX
8
Parts
10
47.871452
20
175.359443
30
0.000000
0
VERTEX
8
Parts
10
48.299487
20
176.345671
30
0.000000
0
VERTEX
8
Parts
10
49.055947
20
177.109627
30
0.000000
42
-0.099369
0
VERTEX
8
Parts
10
50.109529
20
177.563477
30
0.000000
42
-0.016264
0
VERTEX
8
Parts
10
65.310259
20
178.804508
30
0.000000
0
VERTEX
8
Parts
10
66.396908
20
178.790285
30
0.000000
0
VERTEX
8
Parts
10
67.406076
20
178.387062
30
0.000000
42
-0.289843
0
VERTEX
8
Parts
10
68.770912
20
175.509831
30
0.000000
42
-0.031089
0
VERTEX
8
Parts
10
68.703691
20
173.759255
30
0.000000
0
VERTEX
8
Parts
10
68.251842
20
172.775969
30
0.000000
0
VERTEX
8
Parts
10
67.476060
20
172.021527
30
0.000000
0
VERTEX
8
Parts
10
66.480556
20
171.597274
30
0.000000
0
VERTEX
8
Parts
10
66.139457
20
171.542220
30
0.000000
42
-0.010120
0
VERTEX
8
Parts
10
50.888524
20
171.802673
30
0.000000
0
SEQEND
8
0
0
ENDBLK
0
ENDSEC
0
SECTION
2
ENTITIES
0
POLYLINE
8
0
6
Continuous
70
0
66
 1
10
0.0
20
0.0
30
0.000000
0
VERTEX
8
0
10
0.000000
20
0.000000
30
0.000000
0
VERTEX
8
0
10
297.000000
20
0.000000
30
0.000000
0
VERTEX
8
0
10
297.000000
20
210.000000
30
0.000000
0
VERTEX
8
0
10
0.000000
20
210.000000
30
0.000000
0
VERTEX
8
0
10
0.000000
20
0.000000
30
0.000000
0
SEQEND
8
0
0
POLYLINE
8
Parts
6
Continuous
70
0
66
 1
10
0.0
20
0.0
30
0.000000
0
VERTEX
8
Parts
10
167.501966
20
9.221854
30
0.000000
42
-0.017235
0
VERTEX
8
Parts
10
136.729452
20
11.945907
30
0.000000
42
-0.000766
0
VERTEX
8
Parts
10
108.692578
20
15.306230
30
0.000000
42
0.020079
0
VERTEX
8
Parts
10
62.365124
20
19.246508
30
0.000000
42
0.039503
0
VERTEX
8
Parts
10
29.331272
20
18.087085
30
0.000000
42
0.064553
0
VERTEX
8
Parts
10
13.458779
20
14.259274
30
0.000000
42
0.125076
0
VERTEX
8
Parts
10
8.063777
20
10.642093
30
0.000000
42
0.382037
0
VERTEX
8
Parts
10
7.803382
20
8.512221
30
0.000000
42
0.119532
0
VERTEX
8
Parts
10
11.632225
20
7.231860
30
0.000000
42
0.030144
0
VERTEX
8
Parts
10
27.912201
20
5.951731
30
0.000000
42
0.015435
0
VERTEX
8
Parts
10
87.948961
20
6.083262
30
0.000000
42
0.004564
0
VERTEX
8
Parts
10
164.419502
20
9.010088
30
0.000000
42
0.007180
0
VERTEX
8
Parts
10
167.501966
20
9.221854
30
0.000000
0
SEQEND
8
0
0
POLYLINE
8
Parts
6
Continuous
70
0
66
 1
10
0.0
20
0.0
30
0.000000
0
VERTEX
8
Parts
10
167.501966
20
9.221854
30
0.000000
42
-0.017235
0
VERTEX
8
Parts
10
136.729452
20
11.945907
30
0.000000
42
-0.001361
0
VERTEX
8
Parts
10
112.501966
20
14.855146
30
0.000000
0
VERTEX
8
Parts
10
112.324070
20
13.365732
30
0.000000
42
0.018946
0
VERTEX
8
Parts
10
64.571688
20
17.663764
30
0.000000
42
0.039174
0
VERTEX
8
Parts
10
30.522048
20
16.727625
30
0.000000
42
0.064984
0
VERTEX
8
Parts
10
14.196930
20
12.942484
30
0.000000
42
0.121382
0
VERTEX
8
Parts
10
9.298228
20
9.784695
30
0.000000
42
0.160916
0
VERTEX
8
Parts
10
9.116674
20
9.446536
30
0.000000
42
0.072246
0
VERTEX
8
Parts
10
14.710972
20
8.318572
30
0.000000
42
0.021602
0
VERTEX
8
Parts
10
45.304779
20
7.066238
30
0.000000
42
0.010608
0
VERTEX
8
Parts
10
112.448980
20
8.366150
30
0.000000
0
VERTEX
8
Parts
10
112.501966
20
6.867086
30
0.000000
42
0.004253
0
VERTEX
8
Parts
10
166.027833
20
9.110188
30
0.000000
42
0.004953
0
VERTEX
8
Parts
10
167.363025
20
9.210179
30
0.000000
0
SEQEND
8
0
0
POLYLINE
8
Parts
6
Continuous
70
0
66
 1
10
0.0
20
0.0
30
0.000000
0
VERTEX
8
Parts
10
18.003931
20
10.221854
30
0.000000
0
VERTEX
8
Parts
10
11.501966
20
4.565000
30
0.000000
0
VERTEX
8
Parts
10
5.000000
20
10.221854
30
0.000000
0
VERTEX
8
Parts
10
11.501966
20
15.878708
30
0.000000
0
VERTEX
8
Parts
10
18.003931
20
10.221854
30
0.000000
0
SEQEND
8
0
0
POLYLINE
8
Parts
6
Continuous
70
0
66
 1
10
0.0
20
0.0
30
0.000000
0
VERTEX
8
Parts
10
157.521776
20
9.245323
30
0.000000
42
-0.009247
0
VERTEX
8
Parts
10
112.566402
20
14.243185
30
0.000000
0
VERTEX
8
Parts
10
113.097731
20
14.783988
30
0.000000
0
VERTEX
8
Parts
10
112.501966
20
14.855146
30
0.000000
0
VERTEX
8
Parts
10
112.324070
20
13.365732
30
0.000000
42
0.018946
0
VERTEX
8
Parts
10
64.571688
20
17.663764
30
0.000000
42
0.039174
0
VERTEX
8
Parts
10
30.522048
20
16.727625
30
0.000000
42
0.064984
0
VERTEX
8
Parts
10
14.196930
20
12.942484
30
0.000000
42
0.121382
0
VERTEX
8
Parts
10
9.298228
20
9.784695
30
0.000000
42
0.160916
0
VERTEX
8
Parts
10
9.116674
20
9.446536
30
0.000000
42
0.072246
0
VERTEX
8
Parts
10
14.710972
20
8.318572
30
0.000000
42
0.021602
0
VERTEX
8
Parts
10
45.304779
20
7.066238
30
0.000000
42
0.010608
0
VERTEX
8
Parts
10
112.448980
20
8.366150
30
0.000000
0
VERTEX
8
Parts
10
112.501966
20
6.867086
30
0.000000
0
VERTEX
8
Parts
10
113.101591
20
6.888280
30
0.000000
0
VERTEX
8
Parts
10
112.652678
20
7.472787
30
0.000000
42
0.002063
0
VERTEX
8
Parts
10
157.521776
20
9.245323
30
0.000000
0
SEQEND
8
0
0
POLYLINE
8
Parts
6
Continuous
70
0
66
 1
10
0.0
20
0.0
30
0.000000
0
VERTEX
8
Parts
10
57.887127
20
12.474713
30
0.000000
42
0.432194
0
VERTEX
8
Parts
10
54.256127
20
15.464951
30
0.000000
42
0.448265
0
VERTEX
8
Parts
10
51.210465
20
11.992669
30
0.000000
42
0.547021
0
VERTEX
8
Parts
10
56.786514
20
10.254292
30
0.000000
42
0.228930
0
VERTEX
8
Parts
10
57.887127
20
12.474713
30
0.000000
0
SEQEND
8
0
0
POLYLINE
8
Parts
6
Continuous
70
0
66
 1
10
0.0
20
0.0
30
0.000000
0
VERTEX
8
Parts
10
40.216285
20
14.456047
30
0.000000
42
0.044252
0
VERTEX
8
Parts
10
37.540268
20
14.139751
30
0.000000
42
0.884838
0
VERTEX
8
Parts
10
38.732548
20
10.371774
30
0.000000
42
0.019217
0
VERTEX
8
Parts
10
42.581510
20
10.358054
30
0.000000
42
0.415548
0
VERTEX
8
Parts
10
44.026916
20
12.976431
30
0.000000
42
0.432129
0
VERTEX
8
Parts
10
41.431032
20
14.534703
30
0.000000
42
0.002107
0
VERTEX
8
Parts
10
40.216285
20
14.456047
30
0.000000
0
SEQEND
8
0
0
POLYLINE
8
Parts
6
Continuous
70
0
66
 1
10
0.0
20
0.0
30
0.000000
0
VERTEX
8
Parts
10
72.776904
20
14.261818
30
0.000000
42
0.008927
0
VERTEX
8
Parts
10
66.011933
20
14.574405
30
0.000000
42
0.424154
0
VERTEX
8
Parts
10
64.514608
20
12.258143
30
0.000000
0
VERTEX
8
Parts
10
64.514608
20
11.874645
30
0.000000
42
0.498742
0
VERTEX
8
Parts
10
66.818772
20
9.966462
30
0.000000
42
0.007592
0
VERTEX
8
Parts
10
79.720682
20
10.321574
30
0.000000
42
0.920663
0
VERTEX
8
Parts
10
79.027705
20
13.859073
30
0.000000
42
0.002965
0
VERTEX
8
Parts
10
72.776904
20
14.261818
30
0.000000
0
SEQEND
8
0
0
POLYLINE
8
Parts
6
Continuous
70
0
66
 1
10
0.0
20
0.0
30
0.000000
0
VERTEX
8
Parts
10
103.501966
20
14.396466
30
0.000000
0
VERTEX
8
Parts
10
103.501966
20
20.677332
30
0.000000
0
VERTEX
8
Parts
10
111.501966
20
20.467845
30
0.000000
0
VERTEX
8
Parts
10
111.501966
20
13.463768
30
0.000000
0
SEQEND
8
0
0
POLYLINE
8
Parts
6
Continuous
70
0
66
 1
10
0.0
20
0.0
30
0.000000
0
VERTEX
8
Parts
10
18.865927
20
14.517910
30
0.000000
0
VERTEX
8
Parts
10
18.865927
20
22.893605
30
0.000000
0
VERTEX
8
Parts
10
26.865927
20
22.684117
30
0.000000
0
VERTEX
8
Parts
10
26.865927
20
16.212675
30
0.000000
0
SEQEND
8
0
0
TEXT
8
Imported_labels
6
Continuous
7
Standard
10
57.226966
20
9.472588
72
2
73
0
11
57.226966
21
9.472588
40
3.333333
41
1.000000
50
0.000000
1
#07
0
POLYLINE
8
Parts
6
Continuous
70
0
66
 1
10
0.0
20
0.0
30
0.000000
0
VERTEX
8
Parts
10
271.301966
20
27.041854
30
0.000000
42
-0.017298
0
VERTEX
8
Parts
10
241.639521
20
29.715081
30
0.000000
42
-0.000576
0
VERTEX
8
Parts
10
219.435421
20
32.387467
30
0.000000
42
0.020328
0
VERTEX
8
Parts
10
176.021703
20
36.126697
30
0.000000
42
0.040839
0
VERTEX
8
Parts
10
145.481427
20
34.994032
30
0.000000
42
0.068629
0
VERTEX
8
Parts
10
131.167637
20
31.373538
30
0.000000
42
0.138801
0
VERTEX
8
Parts
10
126.591731
20
28.016584
30
0.000000
42
0.583996
0
VERTEX
8
Parts
10
127.285495
20
25.970457
30
0.000000
42
0.071642
0
VERTEX
8
Parts
10
133.409876
20
24.795139
30
0.000000
42
0.020608
0
VERTEX
8
Parts
10
164.450514
20
23.706462
30
0.000000
42
0.009851
0
VERTEX
8
Parts
10
237.563781
20
25.505692
30
0.000000
42
0.006475
0
VERTEX
8
Parts
10
271.301966
20
27.041854
30
0.000000
0
SEQEND
8
0
0
POLYLINE
8
Parts
6
Continuous
70
0
66
 1
10
0.0
20
0.0
30
0.000000
0
VERTEX
8
Parts
10
271.301966
20
27.041854
30
0.000000
42
-0.017298
0
VERTEX
8
Parts
10
241.639521
20
29.715081
30
0.000000
42
-0.000576
0
VERTEX
8
Parts
10
219.435421
20
32.387467
30
0.000000
42
0.000517
0
VERTEX
8
Parts
10
216.301966
20
32.754719
30
0.000000
0
VERTEX
8
Parts
10
216.128815
20
31.264746
30
0.000000
42
0.021526
0
VERTEX
8
Parts
10
173.932699
20
34.688628
30
0.000000
42
0.041393
0
VERTEX
8
Parts
10
144.803782
20
33.381424
30
0.000000
42
0.069372
0
VERTEX
8
Parts
10
131.559436
20
29.902725
30
0.000000
42
0.118048
0
VERTEX
8
Parts
10
127.956796
20
27.357540
30
0.000000
42
0.076705
0
VERTEX
8
Parts
10
132.850711
20
26.363013
30
0.000000
42
0.021815
0
VERTEX
8
Parts
10
161.976500
20
25.218259
30
0.000000
42
0.009868
0
VERTEX
8
Parts
10
216.250717
20
26.227757
30
0.000000
0
VERTEX
8
Parts
10
216.301966
20
24.728632
30
0.000000
42
0.004381
0
VERTEX
8
Parts
10
270.174212
20
26.954673
30
0.000000
42
0.004280
0
VERTEX
8
Parts
10
271.176050
20
27.031274
30
0.000000
0
SEQEND
8
0
0
POLYLINE
8
Parts
6
Continuous
70
0
66
 1
10
0.0
20
0.0
30
0.000000
0
VERTEX
8
Parts
10
136.803931
20
28.041854
30
0.000000
0
VERTEX
8
Parts
10
130.301966
20
22.385000
30
0.000000
0
VERTEX
8
Parts
10
123.800000
20
28.041854
30
0.000000
0
VERTEX
8
Parts
10
130.301966
20
33.698708
30
0.000000
0
VERTEX
8
Parts
10
136.803931
20
28.041854
30
0.000000
0
SEQEND
8
0
0
POLYLINE
8
Parts
6
Continuous
70
0
66
 1
10
0.0
20
0.0
30
0.000000
0
VERTEX
8
Parts
10
261.403537
20
27.078703
30
0.000000
42
-0.008084
0
VERTEX
8
Parts
10
217.579104
20
32.001736
30
0.000000
42
0.000180
0
VERTEX
8
Parts
10
216.508457
20
32.126685
30
0.000000
0
VERTEX
8
Parts
10
216.897955
20
32.685459
30
0.000000
0
VERTEX
8
Parts
10
216.301966
20
32.754719
30
0.000000
0
VERTEX
8
Parts
10
216.128815
20
31.264746
30
0.000000
42
0.021526
0
VERTEX
8
Parts
10
173.932699
20
34.688628
30
0.000000
42
0.041393
0
VERTEX
8
Parts
10
144.803782
20
33.381424
30
0.000000
42
0.069372
0
VERTEX
8
Parts
10
131.559436
20
29.902725
30
0.000000
42
0.118048
0
VERTEX
8
Parts
10
127.956796
20
27.357540
30
0.000000
42
0.076705
0
VERTEX
8
Parts
10
132.850711
20
26.363013
30
0.000000
42
0.021815
0
VERTEX
8
Parts
10
161.976500
20
25.218259
30
0.000000
42
0.009868
0
VERTEX
8
Parts
10
216.250717
20
26.227757
30
0.000000
0
VERTEX
8
Parts
10
216.301966
20
24.728632
30
0.000000
0
VERTEX
8
Parts
10
216.901615
20
24.749132
30
0.000000
0
VERTEX
8
Parts
10
216.521566
20
25.336490
30
0.000000
42
0.002141
0
VERTEX
8
Parts
10
261.403537
20
27.078703
30
0.000000
0
SEQEND
8
0
0
POLYLINE
8
Parts
6
Continuous
70
0
66
 1
10
0.0
20
0.0
30
0.000000
0
VERTEX
8
Parts
10
172.024627
20
29.990233
30
0.000000
42
0.432194
0
VERTEX
8
Parts
10
168.393627
20
32.980472
30
0.000000
42
0.448265
0
VERTEX
8
Parts
10
165.347965
20
29.508189
30
0.000000
42
0.547021
0
VERTEX
8
Parts
10
170.924014
20
27.769812
30
0.000000
42
0.228930
0
VERTEX
8
Parts
10
172.024627
20
29.990233
30
0.000000
0
SEQEND
8
0
0
POLYLINE
8
Parts
6
Continuous
70
0
66
 1
10
0.0
20
0.0
30
0.000000
0
VERTEX
8
Parts
10
154.481793
20
31.460434
30
0.000000
42
0.029496
0
VERTEX
8
Parts
10
151.272913
20
31.110476
30
0.000000
42
0.897005
0
VERTEX
8
Parts
10
152.181317
20
28.466128
30
0.000000
42
0.010384
0
VERTEX
8
Parts
10
157.459865
20
28.406217
30
0.000000
42
0.404102
0
VERTEX
8
Parts
10
158.505391
20
30.226030
30
0.000000
42
0.498474
0
VERTEX
8
Parts
10
156.591136
20
31.586699
30
0.000000
42
0.005374
0
VERTEX
8
Parts
10
154.481793
20
31.460434
30
0.000000
0
SEQEND
8
0
0
POLYLINE
8
Parts
6
Continuous
70
0
66
 1
10
0.0
20
0.0
30
0.000000
0
VERTEX
8
Parts
10
181.600605
20
31.561018
30
0.000000
42
0.048228
0
VERTEX
8
Parts
10
179.234744
20
31.547448
30
0.000000
42
0.930286
0
VERTEX
8
Parts
10
180.310340
20
28.018719
30
0.000000
42
0.018230
0
VERTEX
8
Parts
10
183.899969
20
28.122350
30
0.000000
42
0.944195
0
VERTEX
8
Parts
10
183.061935
20
31.492518
30
0.000000
42
0.000927
0
VERTEX
8
Parts
10
181.600605
20
31.561018
30
0.000000
0
SEQEND
8
0
0
POLYLINE
8
Parts
6
Continuous
70
0
66
 1
10
0.0
20
0.0
30
0.000000
0
VERTEX
8
Parts
10
208.051966
20
32.170749
30
0.000000
0
VERTEX
8
Parts
10
208.051966
20
37.648618
30
0.000000
0
VERTEX
8
Parts
10
215.301966
20
37.427111
30
0.000000
0
VERTEX
8
Parts
10
215.301966
20
31.360526
30
0.000000
0
SEQEND
8
0
0
POLYLINE
8
Parts
6
Continuous
70
0
66
 1
10
0.0
20
0.0
30
0.000000
0
VERTEX
8
Parts
10
137.665927
20
31.979072
30
0.000000
0
VERTEX
8
Parts
10
137.665927
20
39.799106
30
0.000000
0
VERTEX
8
Parts
10
144.915927
20
39.577599
30
0.000000
0
VERTEX
8
Parts
10
144.915927
20
33.397872
30
0.000000
0
SEQEND
8
0
0
TEXT
8
Imported_labels
6
Continuous
7
Standard
10
171.514466
20
26.987962
72
2
73
0
11
171.514466
21
26.987962
40
3.333333
41
1.000000
50
0.000000
1
#08
0
POLYLINE
8
Parts
6
Continuous
70
0
66
 1
10
0.0
20
0.0
30
0.000000
0
VERTEX
8
Parts
10
137.501966
20
53.771854
30
0.000000
42
-0.017563
0
VERTEX
8
Parts
10
108.673258
20
56.430617
30
0.000000
42
-0.000460
0
VERTEX
8
Parts
10
92.924710
20
58.335736
30
0.000000
42
0.020655
0
VERTEX
8
Parts
10
52.078282
20
61.916886
30
0.000000
42
0.042986
0
VERTEX
8
Parts
10
23.892583
20
60.785894
30
0.000000
42
0.072493
0
VERTEX
8
Parts
10
11.429444
20
57.452178
30
0.000000
42
0.150631
0
VERTEX
8
Parts
10
7.644260
20
54.436468
30
0.000000
42
0.535843
0
VERTEX
8
Parts
10
8.383751
20
52.811291
30
0.000000
42
0.072478
0
VERTEX
8
Parts
10
14.218166
20
51.723484
30
0.000000
42
0.020671
0
VERTEX
8
Parts
10
45.211155
20
50.779983
30
0.000000
42
0.008786
0
VERTEX
8
Parts
10
114.726067
20
52.685715
30
0.000000
42
0.000042
0
VERTEX
8
Parts
10
116.352884
20
52.750511
30
0.000000
0
VERTEX
8
Parts
10
120.253238
20
52.906351
30
0.000000
42
0.007457
0
VERTEX
8
Parts
10
137.501966
20
53.771854
30
0.000000
0
SEQEND
8
0
0
POLYLINE
8
Parts
6
Continuous
70
0
66
 1
10
0.0
20
0.0
30
0.000000
0
VERTEX
8
Parts
10
137.501966
20
53.771854
30
0.000000
42
-0.017563
0
VERTEX
8
Parts
10
108.673258
20
56.430617
30
0.000000
42
-0.000460
0
VERTEX
8
Parts
10
92.924710
20
58.335736
30
0.000000
42
0.002343
0
VERTEX
8
Parts
10
82.501966
20
59.537837
30
0.000000
0
VERTEX
8
Parts
10
82.338417
20
58.046780
30
0.000000
42
0.028680
0
VERTEX
8
Parts
10
42.663192
20
60.547508
30
0.000000
42
0.048678
0
VERTEX
8
Parts
10
19.661970
20
58.502134
30
0.000000
42
0.078066
0
VERTEX
8
Parts
10
11.035625
20
55.542512
30
0.000000
42
0.101658
0
VERTEX
8
Parts
10
9.251885
20
54.078773
30
0.000000
42
0.059483
0
VERTEX
8
Parts
10
15.744752
20
53.092906
30
0.000000
42
0.019552
0
VERTEX
8
Parts
10
51.282375
20
52.314529
30
0.000000
42
0.005750
0
VERTEX
8
Parts
10
82.453696
20
53.007884
30
0.000000
0
VERTEX
8
Parts
10
82.501966
20
51.508661
30
0.000000
42
0.004512
0
VERTEX
8
Parts
10
136.490876
20
53.693692
30
0.000000
42
0.004280
0
VERTEX
8
Parts
10
137.389076
20
53.762368
30
0.000000
0
SEQEND
8
0
0
POLYLINE
8
Parts
6
Continuous
70
0
66
 1
10
0.0
20
0.0
30
0.000000
0
VERTEX
8
Parts
10
18.003931
20
54.771854
30
0.000000
0
VERTEX
8
Parts
10
11.501966
20
49.115000
30
0.000000
0
VERTEX
8
Parts
10
5.000000
20
54.771854
30
0.000000
0
VERTEX
8
Parts
10
11.501966
20
60.428708
30
0.000000
0
VERTEX
8
Parts
10
18.003931
20
54.771854
30
0.000000
0
SEQEND
8
0
0
POLYLINE
8
Parts
6
Continuous
70
0
66
 1
10
0.0
20
0.0
30
0.000000
0
VERTEX
8
Parts
10
127.695706
20
53.823424
30
0.000000
42
-0.006974
0
VERTEX
8
Parts
10
87.091568
20
58.417020
30
0.000000
42
0.001316
0
VERTEX
8
Parts
10
82.639594
20
58.919142
30
0.000000
0
VERTEX
8
Parts
10
83.098388
20
59.472417
30
0.000000
0
VERTEX
8
Parts
10
82.501966
20
59.537837
30
0.000000
0
VERTEX
8
Parts
10
82.338417
20
58.046780
30
0.000000
42
0.028680
0
VERTEX
8
Parts
10
42.663192
20
60.547508
30
0.000000
42
0.048678
0
VERTEX
8
Parts
10
19.661970
20
58.502134
30
0.000000
42
0.078066
0
VERTEX
8
Parts
10
11.035625
20
55.542512
30
0.000000
42
0.101658
0
VERTEX
8
Parts
10
9.251885
20
54.078773
30
0.000000
42
0.059483
0
VERTEX
8
Parts
10
15.744752
20
53.092906
30
0.000000
42
0.019552
0
VERTEX
8
Parts
10
51.282375
20
52.314529
30
0.000000
42
0.005750
0
VERTEX
8
Parts
10
82.453696
20
53.007884
30
0.000000
0
VERTEX
8
Parts
10
82.501966
20
51.508661
30
0.000000
0
VERTEX
8
Parts
10
83.100277
20
51.553647
30
0.000000
0
VERTEX
8
Parts
10
82.546888
20
52.110418
30
0.000000
42
0.002328
0
VERTEX
8
Parts
10
127.695706
20
53.823424
30
0.000000
0
SEQEND
8
0
0
POLYLINE
8
Parts
6
Continuous
70
0
66
 1
10
0.0
20
0.0
30
0.000000
0
VERTEX
8
Parts
10
48.562127
20
56.415650
30
0.000000
42
0.432194
0
VERTEX
8
Parts
10
44.931127
20
59.405889
30
0.000000
42
0.448265
0
VERTEX
8
Parts
10
41.885465
20
55.933606
30
0.000000
42
0.547021
0
VERTEX
8
Parts
10
47.461514
20
54.195229
30
0.000000
42
0.228930
0
VERTEX
8
Parts
10
48.562127
20
56.415650
30
0.000000
0
SEQEND
8
0
0
POLYLINE
8
Parts
6
Continuous
70
0
66
 1
10
0.0
20
0.0
30
0.000000
0
VERTEX
8
Parts
10
31.996098
20
57.346323
30
0.000000
42
0.035500
0
VERTEX
8
Parts
10
29.110456
20
57.065123
30
0.000000
42
0.883213
0
VERTEX
8
Parts
10
29.822055
20
55.383666
30
0.000000
42
0.011530
0
VERTEX
8
Parts
10
34.736408
20
55.331681
30
0.000000
42
0.399337
0
VERTEX
8
Parts
10
35.323781
20
56.752493
30
0.000000
42
0.424519
0
VERTEX
8
Parts
10
34.005135
20
57.417385
30
0.000000
42
0.006898
0
VERTEX
8
Parts
10
31.996098
20
57.346323
30
0.000000
0
SEQEND
8
0
0
POLYLINE
8
Parts
6
Continuous
70
0
66
 1
10
0.0
20
0.0
30
0.000000
0
VERTEX
8
Parts
10
57.657015
20
57.537824
30
0.000000
42
0.029736
0
VERTEX
8
Parts
10
54.850971
20
57.572861
30
0.000000
42
0.722502
0
VERTEX
8
Parts
10
55.089270
20
54.966571
30
0.000000
42
0.014842
0
VERTEX
8
Parts
10
60.476069
20
55.078023
30
0.000000
42
0.937137
0
VERTEX
8
Parts
10
59.765615
20
57.436331
30
0.000000
42
0.001788
0
VERTEX
8
Parts
10
57.657015
20
57.537824
30
0.000000
0
SEQEND
8
0
0
POLYLINE
8
Parts
6
Continuous
70
0
66
 1
10
0.0
20
0.0
30
0.000000
0
VERTEX
8
Parts
10
75.001966
20
58.806740
30
0.000000
0
VERTEX
8
Parts
10
75.001966
20
63.799743
30
0.000000
0
VERTEX
8
Parts
10
81.501966
20
63.572758
30
0.000000
0
VERTEX
8
Parts
10
81.501966
20
58.137937
30
0.000000
0
SEQEND
8
0
0
POLYLINE
8
Parts
6
Continuous
70
0
66
 1
10
0.0
20
0.0
30
0.000000
0
VERTEX
8
Parts
10
18.865927
20
58.324221
30
0.000000
0
VERTEX
8
Parts
10
18.865927
20
65.760056
30
0.000000
0
VERTEX
8
Parts
10
25.365927
20
65.533071
30
0.000000
0
VERTEX
8
Parts
10
25.365927
20
59.478532
30
0.000000
0
SEQEND
8
0
0
TEXT
8
Imported_labels
6
Continuous
7
Standard
10
48.201966
20
53.413336
72
2
73
0
11
48.201966
21
53.413336
40
3.333333
41
1.000000
50
0.000000
1
#09
0
INSERT
8
Parts
6
Continuous
2
*R
10
48.373092
20
84.209215
41
1.000000
42
1.000000
50
0.000000
0
TEXT
8
Imported_labels
6
Continuous
7
Standard
10
102.270741
20
79.195486
72
2
73
0
11
102.270741
21
79.195486
40
3.333333
41
1.000000
50
0.000000
1
#01
0
INSERT
8
Parts
6
Continuous
2
*R1
10
22.524254
20
116.366461
41
1.000000
42
1.000000
50
0.000000
0
TEXT
8
Imported_labels
6
Continuous
7
Standard
10
70.901568
20
111.248858
72
2
73
0
11
70.901568
21
111.248858
40
3.333333
41
1.000000
50
0.000000
1
#02
0
INSERT
8
Parts
6
Continuous
2
*R2
10
106.622917
20
148.471340
41
1.000000
42
1.000000
50
0.000000
0
TEXT
8
Imported_labels
6
Continuous
7
Standard
10
66.258344
20
143.224753
72
2
73
0
11
66.258344
21
143.224753
40
3.333333
41
1.000000
50
0.000000
1
#03
0
INSERT
8
Parts
6
Continuous
2
*R3
10
119.875083
20
177.611953
41
1.000000
42
1.000000
50
0.000000
0
TEXT
8
Imported_labels
6
Continuous
7
Standard
10
82.404412
20
172.275566
72
2
73
0
11
82.404412
21
172.275566
40
3.333333
41
1.000000
50
0.000000
1
#04
0
ENDSEC
0
EOF
