0
SECTION
2
HEADER
0
ENDSEC
0
SECTION
2
TABLES
0
TABLE
2
LTYPE
0
LTYPE
2
Continuous
70
0
3
Solid line
72
65
73
0
40
0.000000
0
ENDTAB
0
TABLE
2
LAYER
0
LAYER
2
0
70
0
62
7
6
Continuous
0
LAYER
2
Parts
70
0
62
7
6
Continuous
0
LAYER
2
Imported_labels
70
0
62
7
6
Continuous
0
ENDTAB
0
TABLE
2
STYLE
0
STYLE
2
Standard
3
Arial
70
0
71
0
40
5.000000
41
1.000000
42
5.000000
50
0.000000
0
ENDTAB
0
TABLE
2
DIMSTYLE
0
DIMSTYLE
2
Standard
70
0
3

4

5

6
CLOSEDFILLED
7
CLOSEDFILLED
40
1.000000
41
2.000000
42
1.000000
43
5.000000
44
2.000000
45
0.000000
46
0.000000
47
0.000000
48
0.000000
140
5.000000
141
2.000000
142
0.000000
143
25.400000
144
1.000000
145
0.000000
146
1.000000
147
2.000000
71
0
72
0
73
0
74
1
75
0
76
0
77
0
78
0
170
0
171
4
172
0
173
1
174
0
175
0
176
0
177
-2
178
-2
271
4
272
4
273
1
274
4
275
0
280
0
281
0
282
0
283
1
288
0
0
ENDTAB
0
ENDSEC
0
SECTION
2
BLOCKS
0
BLOCK
8
0
2
_CLOSEDFILLED
70
0
10
0.000000
20
0.000000
3
_CLOSEDFILLED
0
SOLID
8
0
10
-1.000000
20
0.166667
30
0.000000
11
-1.000000
21
-0.166667
31
0.000000
12
0.000000
22
0.000000
32
0.000000
13
0.000000
23
0.000000
33
0.000000
0
ENDBLK
0
BLOCK
8
0
2
_CLOSEDBLANK
70
0
10
0.000000
20
0.000000
3
_CLOSEDBLANK
0
LINE
8
0
10
-1.000000
20
0.166667
30
0.000000
11
0.000000
21
0.000000
31
0.000000
0
LINE
8
0
10
0.000000
20
0.000000
30
0.000000
11
-1.000000
21
-0.166667
31
0.000000
0
LINE
8
0
10
-1.000000
20
0.166667
30
0.000000
11
-1.000000
21
-0.166667
31
0.000000
0
ENDBLK
0
BLOCK
8
0
2
_CLOSED
70
0
10
0.000000
20
0.000000
3
_CLOSED
0
LINE
8
0
10
-1.000000
20
0.166667
30
0.000000
11
0.000000
21
0.000000
31
0.000000
0
LINE
8
0
10
0.000000
20
0.000000
30
0.000000
11
-1.000000
21
-0.166667
31
0.000000
0
LINE
8
0
10
-1.000000
20
0.166667
30
0.000000
11
-1.000000
21
-0.166667
31
0.000000
0
LINE
8
0
10
0.000000
20
0.000000
30
0.000000
11
-1.000000
21
0.000000
31
0.000000
0
ENDBLK
0
BLOCK
8
0
2
_DOT
70
0
10
0.000000
20
0.000000
3
_DOT
0
POLYLINE
8
0
70
1
66
 1
10
0.0
20
0.0
30
0.000000
0
VERTEX
8
0
10
0.250000
20
0.000000
30
0.000000
42
1.000000
0
VERTEX
8
0
10
-0.250000
20
0.000000
30
0.000000
42
1.000000
0
SEQEND
8
0
0
LINE
8
0
10
-0.500000
20
0.000000
30
0.000000
11
-1.000000
21
0.000000
31
0.000000
0
ENDBLK
0
BLOCK
8
0
2
_ARCHTICK
70
0
10
0.000000
20
0.000000
3
_ARCHTICK
0
POLYLINE
8
0
70
0
66
 1
10
0.0
20
0.0
30
0.000000
0
VERTEX
8
0
10
0.500000
20
0.500000
30
0.000000
0
VERTEX
8
0
10
-0.500000
20
-0.500000
30
0.000000
0
SEQEND
8
0
0
ENDBLK
0
BLOCK
8
0
2
_OBLIQUE
70
0
10
0.000000
20
0.000000
3
_OBLIQUE
0
LINE
8
0
10
-0.500000
20
-0.500000
30
0.000000
11
0.500000
21
0.500000
31
0.000000
0
ENDBLK
0
BLOCK
8
0
2
_OPEN
70
0
10
0.000000
20
0.000000
3
_OPEN
0
LINE
8
0
10
-1.000000
20
0.166667
30
0.000000
11
0.000000
21
0.000000
31
0.000000
0
LINE
8
0
10
-1.000000
20
-0.166667
30
0.000000
11
0.000000
21
0.000000
31
0.000000
0
LINE
8
0
10
0.000000
20
0.000000
30
0.000000
11
-1.000000
21
0.000000
31
0.000000
0
ENDBLK
0
BLOCK
8
0
2
_ORIGIN
70
0
10
0.000000
20
0.000000
3
_ORIGIN
0
CIRCLE
8
0
10
0.000000
20
0.000000
40
0.500000
0
LINE
8
0
10
0.000000
20
0.000000
30
0.000000
11
-1.000000
21
0.000000
31
0.000000
0
ENDBLK
0
BLOCK
8
0
2
_ORIGIN2
70
0
10
0.000000
20
0.000000
3
_ORIGIN2
0
CIRCLE
8
0
10
0.000000
20
0.000000
40
0.500000
0
CIRCLE
8
0
10
0.000000
20
0.000000
40
0.250000
0
LINE
8
0
10
-0.500000
20
0.000000
30
0.000000
11
-1.000000
21
0.000000
31
0.000000
0
ENDBLK
0
BLOCK
8
0
2
_OPEN90
70
0
10
0.000000
20
0.000000
3
_OPEN90
0
LINE
8
0
10
-0.500000
20
0.500000
30
0.000000
11
0.000000
21
0.000000
31
0.000000
0
LINE
8
0
10
0.000000
20
0.000000
30
0.000000
11
-0.500000
21
-0.500000
31
0.000000
0
LINE
8
0
10
0.000000
20
0.000000
30
0.000000
11
-1.000000
21
0.000000
31
0.000000
0
ENDBLK
0
BLOCK
8
0
2
_OPEN30
70
0
10
0.000000
20
0.000000
3
_OPEN30
0
LINE
8
0
10
-1.000000
20
0.267949
30
0.000000
11
0.000000
21
0.000000
31
0.000000
0
LINE
8
0
10
0.000000
20
0.000000
30
0.000000
11
-1.000000
21
-0.267949
31
0.000000
0
LINE
8
0
10
0.000000
20
0.000000
30
0.000000
11
-1.000000
21
0.000000
31
0.000000
0
ENDBLK
0
BLOCK
8
0
2
_DOTSMALL
70
0
10
0.000000
20
0.000000
3
_DOTSMALL
0
POLYLINE
8
0
70
1
66
 1
10
0.0
20
0.0
30
0.000000
0
VERTEX
8
0
10
0.062500
20
0.000000
30
0.000000
42
1.000000
0
VERTEX
8
0
10
-0.062500
20
0.000000
30
0.000000
42
1.000000
0
SEQEND
8
0
0
ENDBLK
0
BLOCK
8
0
2
_DOTBLANK
70
0
10
0.000000
20
0.000000
3
_DOTBLANK
0
CIRCLE
8
0
10
0.000000
20
0.000000
40
0.500000
0
LINE
8
0
10
-0.500000
20
0.000000
30
0.000000
11
-1.000000
21
0.000000
31
0.000000
0
ENDBLK
0
BLOCK
8
0
2
_SMALL
70
0
10
0.000000
20
0.000000
3
_SMALL
0
CIRCLE
8
0
10
0.000000
20
0.000000
40
0.250000
0
ENDBLK
0
BLOCK
8
0
2
_BOXBLANK
70
0
10
0.000000
20
0.000000
3
_BOXBLANK
0
LINE
8
0
10
-0.500000
20
-0.500000
30
0.000000
11
0.500000
21
-0.500000
31
0.000000
0
LINE
8
0
10
0.500000
20
-0.500000
30
0.000000
11
0.500000
21
0.500000
31
0.000000
0
LINE
8
0
10
0.500000
20
0.500000
30
0.000000
11
-0.500000
21
0.500000
31
0.000000
0
LINE
8
0
10
-0.500000
20
0.500000
30
0.000000
11
-0.500000
21
-0.500000
31
0.000000
0
LINE
8
0
10
-0.500000
20
0.000000
30
0.000000
11
-1.000000
21
0.000000
31
0.000000
0
ENDBLK
0
BLOCK
8
0
2
_BOXFILLED
70
0
10
0.000000
20
0.000000
3
_BOXFILLED
0
SOLID
8
0
10
-0.500000
20
0.500000
30
0.000000
11
0.500000
21
0.500000
31
0.000000
12
-0.500000
22
-0.500000
32
0.000000
13
0.500000
23
-0.500000
33
0.000000
0
LINE
8
0
10
-0.500000
20
0.000000
30
0.000000
11
-1.000000
21
0.000000
31
0.000000
0
ENDBLK
0
BLOCK
8
0
2
_DATUMBLANK
70
0
10
0.000000
20
0.000000
3
_DATUMBLANK
0
LINE
8
0
10
0.000000
20
0.577350
30
0.000000
11
-1.000000
21
0.000000
31
0.000000
0
LINE
8
0
10
-1.000000
20
0.000000
30
0.000000
11
0.000000
21
-0.577350
31
0.000000
0
LINE
8
0
10
0.000000
20
-0.577350
30
0.000000
11
0.000000
21
0.577350
31
0.000000
0
ENDBLK
0
BLOCK
8
0
2
_DATUMFILLED
70
0
10
0.000000
20
0.000000
3
_DATUMFILLED
0
SOLID
8
0
10
0.000000
20
0.577350
30
0.000000
11
-1.000000
21
0.000000
31
0.000000
12
0.000000
22
-0.577350
32
0.000000
13
0.000000
23
-0.577350
33
0.000000
0
ENDBLK
0
BLOCK
8
0
2
_INTEGRAL
70
0
10
0.000000
20
0.000000
3
_INTEGRAL
0
ARC
8
0
10
0.444888
20
-0.091335
40
0.454167
50
102.000000
51
168.000000
0
ARC
8
0
10
-0.444888
20
0.091335
40
0.454167
50
282.000000
51
348.000000
0
ENDBLK
0
BLOCK
8
0
2
_NONE
70
0
10
0.000000
20
0.000000
3
_NONE
0
ENDBLK
0
BLOCK
8
Parts
2
*R
70
1
10
91.547786
20
13.697722
3
*R
0
POLYLINE
8
Parts
6
Continuous
70
0
66
 1
10
0.0
20
0.0
30
0.000000
0
VERTEX
8
Parts
10
9.580285
20
13.369225
30
0.000000
0
VERTEX
8
Parts
10
9.580285
20
22.830443
30
0.000000
0
VERTEX
8
Parts
10
19.080285
20
22.664620
30
0.000000
0
VERTEX
8
Parts
10
19.080285
20
15.688396
30
0.000000
0
VERTEX
8
Parts
10
21.250515
20
16.032460
30
0.000000
42
-0.023182
0
VERTEX
8
Parts
10
38.418351
20
17.739501
30
0.000000
0
VERTEX
8
Parts
10
46.104492
20
17.986269
30
0.000000
42
-0.016022
0
VERTEX
8
Parts
10
71.063975
20
17.521742
30
0.000000
0
VERTEX
8
Parts
10
83.519745
20
16.690064
30
0.000000
42
-0.008629
0
VERTEX
8
Parts
10
122.716324
20
12.665201
30
0.000000
0
VERTEX
8
Parts
10
122.716324
20
20.855646
30
0.000000
0
VERTEX
8
Parts
10
132.216324
20
20.689823
30
0.000000
0
VERTEX
8
Parts
10
132.216324
20
11.489511
30
0.000000
0
VERTEX
8
Parts
10
133.034385
20
11.389555
30
0.000000
0
VERTEX
8
Parts
10
133.216324
20
12.878480
30
0.000000
0
VERTEX
8
Parts
10
133.811894
20
12.805704
30
0.000000
0
VERTEX
8
Parts
10
133.323657
20
12.260902
30
0.000000
42
0.002041
0
VERTEX
8
Parts
10
155.568696
20
9.629133
30
0.000000
0
VERTEX
8
Parts
10
178.095573
20
7.439598
30
0.000000
42
-0.001789
0
VERTEX
8
Parts
10
133.522315
20
5.631582
30
0.000000
42
-0.198412
0
VERTEX
8
Parts
10
133.815903
20
5.042176
30
0.000000
0
VERTEX
8
Parts
10
133.216324
20
5.019679
30
0.000000
0
VERTEX
8
Parts
10
133.160082
20
6.518624
30
0.000000
42
-0.003058
0
VERTEX
8
Parts
10
85.315664
20
4.987636
30
0.000000
0
VERTEX
8
Parts
10
58.955609
20
4.616783
30
0.000000
42
-0.015247
0
VERTEX
8
Parts
10
15.172289
20
5.426155
30
0.000000
42
-0.016608
0
VERTEX
8
Parts
10
6.104589
20
6.165750
30
0.000000
0
VERTEX
8
Parts
10
8.718290
20
8.439728
30
0.000000
0
VERTEX
8
Parts
10
5.000000
20
11.674722
30
0.000000
42
-0.031338
0
VERTEX
8
Parts
10
9.580285
20
13.369225
30
0.000000
0
SEQEND
8
0
0
POLYLINE
8
Parts
6
Continuous
70
0
66
 1
10
0.0
20
0.0
30
0.000000
0
VERTEX
8
Parts
10
65.736752
20
10.640171
30
0.000000
42
-0.271718
0
VERTEX
8
Parts
10
66.877066
20
13.676840
30
0.000000
42
-0.130602
0
VERTEX
8
Parts
10
68.379313
20
14.349894
30
0.000000
42
-0.031344
0
VERTEX
8
Parts
10
72.800757
20
14.101414
30
0.000000
0
VERTEX
8
Parts
10
73.798630
20
13.592774
30
0.000000
42
-0.273684
0
VERTEX
8
Parts
10
75.013764
20
10.611412
30
0.000000
0
VERTEX
8
Parts
10
74.655750
20
9.550144
30
0.000000
0
VERTEX
8
Parts
10
73.950138
20
8.680330
30
0.000000
42
-0.137414
0
VERTEX
8
Parts
10
72.405792
20
7.956983
30
0.000000
42
-0.032197
0
VERTEX
8
Parts
10
68.228715
20
7.918572
30
0.000000
0
VERTEX
8
Parts
10
67.187221
20
8.348935
30
0.000000
0
VERTEX
8
Parts
10
66.359512
20
9.113671
30
0.000000
42
-0.131019
0
VERTEX
8
Parts
10
65.736752
20
10.640171
30
0.000000
0
SEQEND
8
0
0
POLYLINE
8
Parts
6
Continuous
70
0
66
 1
10
0.0
20
0.0
30
0.000000
0
VERTEX
8
Parts
10
56.099540
20
13.970745
30
0.000000
0
VERTEX
8
Parts
10
54.929073
20
14.283722
30
0.000000
0
VERTEX
8
Parts
10
53.710643
20
14.202351
30
0.000000
0
VERTEX
8
Parts
10
52.605353
20
13.737391
30
0.000000
0
VERTEX
8
Parts
10
51.759346
20
12.950319
30
0.000000
0
VERTEX
8
Parts
10
51.284485
20
11.945204
30
0.000000
0
VERTEX
8
Parts
10
51.243556
20
10.854945
30
0.000000
0
VERTEX
8
Parts
10
51.641970
20
9.823698
30
0.000000
0
VERTEX
8
Parts
10
52.427050
20
8.987817
30
0.000000
0
VERTEX
8
Parts
10
53.494988
20
8.457824
30
0.000000
0
VERTEX
8
Parts
10
54.704582
20
8.303796
30
0.000000
0
VERTEX
8
Parts
10
55.895894
20
8.546098
30
0.000000
0
VERTEX
8
Parts
10
56.911408
20
9.152693
30
0.000000
0
VERTEX
8
Parts
10
57.616850
20
10.043376
30
0.000000
0
VERTEX
8
Parts
10
57.926485
20
11.301255
30
0.000000
0
VERTEX
8
Parts
10
57.704342
20
12.373945
30
0.000000
0
VERTEX
8
Parts
10
57.067282
20
13.304802
30
0.000000
0
VERTEX
8
Parts
10
56.099540
20
13.970745
30
0.000000
0
SEQEND
8
0
0
POLYLINE
8
Parts
6
Continuous
70
0
66
 1
10
0.0
20
0.0
30
0.000000
0
VERTEX
8
Parts
10
41.028537
20
8.062681
30
0.000000
0
VERTEX
8
Parts
10
33.028329
20
8.208088
30
0.000000
42
-0.191731
0
VERTEX
8
Parts
10
31.040614
20
8.777264
30
0.000000
0
VERTEX
8
Parts
10
30.343668
20
9.566122
30
0.000000
0
VERTEX
8
Parts
10
29.987916
20
10.556814
30
0.000000
0
VERTEX
8
Parts
10
30.023815
20
11.608833
30
0.000000
0
VERTEX
8
Parts
10
30.446272
20
12.572970
30
0.000000
0
VERTEX
8
Parts
10
31.195371
20
13.312484
30
0.000000
0
VERTEX
8
Parts
10
32.164849
20
13.722487
30
0.000000
42
-0.019086
0
VERTEX
8
Parts
10
41.205629
20
14.312700
30
0.000000
0
VERTEX
8
Parts
10
42.191279
20
13.917969
30
0.000000
0
VERTEX
8
Parts
10
42.963396
20
13.189168
30
0.000000
42
-0.183757
0
VERTEX
8
Parts
10
43.488934
20
11.237040
30
0.000000
42
-0.190465
0
VERTEX
8
Parts
10
42.979274
20
9.218821
30
0.000000
0
VERTEX
8
Parts
10
42.210440
20
8.489829
30
0.000000
42
-0.112366
0
VERTEX
8
Parts
10
41.028537
20
8.062681
30
0.000000
0
SEQEND
8
0
0
ENDBLK
0
BLOCK
8
Parts
2
*R1
70
1
10
104.782576
20
39.823617
3
*R1
0
POLYLINE
8
Parts
6
Continuous
70
0
66
 1
10
0.0
20
0.0
30
0.000000
0
VERTEX
8
Parts
10
30.192611
20
48.352234
30
0.000000
0
VERTEX
8
Parts
10
38.942611
20
48.161308
30
0.000000
0
VERTEX
8
Parts
10
38.942611
20
41.403224
30
0.000000
0
VERTEX
8
Parts
10
46.704942
20
42.451259
30
0.000000
42
-0.021298
0
VERTEX
8
Parts
10
59.739440
20
43.313860
30
0.000000
42
-0.017234
0
VERTEX
8
Parts
10
82.947258
20
43.118085
30
0.000000
0
VERTEX
8
Parts
10
96.600894
20
42.253853
30
0.000000
0
VERTEX
8
Parts
10
115.982520
20
40.461172
30
0.000000
0
VERTEX
8
Parts
10
129.078650
20
39.021899
30
0.000000
0
VERTEX
8
Parts
10
129.078650
20
46.194533
30
0.000000
0
VERTEX
8
Parts
10
137.828650
20
46.003607
30
0.000000
0
VERTEX
8
Parts
10
137.828650
20
37.957335
30
0.000000
0
VERTEX
8
Parts
10
138.647505
20
37.853478
30
0.000000
0
VERTEX
8
Parts
10
138.828650
20
39.342500
30
0.000000
0
VERTEX
8
Parts
10
139.424258
20
39.270043
30
0.000000
0
VERTEX
8
Parts
10
138.933513
20
38.725320
30
0.000000
0
VERTEX
8
Parts
10
141.530401
20
38.408538
30
0.000000
42
0.001883
0
VERTEX
8
Parts
10
163.324170
20
35.822046
30
0.000000
0
VERTEX
8
Parts
10
183.775153
20
33.814388
30
0.000000
42
-0.001772
0
VERTEX
8
Parts
10
139.079960
20
32.022637
30
0.000000
0
VERTEX
8
Parts
10
139.428248
20
31.434990
30
0.000000
0
VERTEX
8
Parts
10
138.828650
20
31.413030
30
0.000000
0
VERTEX
8
Parts
10
138.773750
20
32.912025
30
0.000000
42
-0.003222
0
VERTEX
8
Parts
10
96.409291
20
31.603964
30
0.000000
42
-0.005922
0
VERTEX
8
Parts
10
60.174268
20
31.304853
30
0.000000
42
-0.014306
0
VERTEX
8
Parts
10
32.229989
20
32.202297
30
0.000000
42
-0.012244
0
VERTEX
8
Parts
10
26.851142
20
32.645982
30
0.000000
0
VERTEX
8
Parts
10
29.330615
20
34.803178
30
0.000000
0
VERTEX
8
Parts
10
25.790000
20
37.883592
30
0.000000
42
-0.017037
0
VERTEX
8
Parts
10
30.192611
20
39.428327
30
0.000000
0
VERTEX
8
Parts
10
30.192611
20
48.352234
30
0.000000
0
SEQEND
8
0
0
POLYLINE
8
Parts
6
Continuous
70
0
66
 1
10
0.0
20
0.0
30
0.000000
0
VERTEX
8
Parts
10
83.348043
20
39.964631
30
0.000000
42
-0.005168
0
VERTEX
8
Parts
10
92.918435
20
39.414134
30
0.000000
42
-1.000420
0
VERTEX
8
Parts
10
93.075059
20
34.575776
30
0.000000
0
VERTEX
8
Parts
10
84.074472
20
34.395164
30
0.000000
42
-0.135619
0
VERTEX
8
Parts
10
82.471556
20
34.612242
30
0.000000
42
-0.325525
0
VERTEX
8
Parts
10
81.083884
20
37.222088
30
0.000000
42
-0.429907
0
VERTEX
8
Parts
10
83.348043
20
39.964631
30
0.000000
0
SEQEND
8
0
0
POLYLINE
8
Parts
6
Continuous
70
0
66
 1
10
0.0
20
0.0
30
0.000000
0
VERTEX
8
Parts
10
72.049365
20
40.029889
30
0.000000
0
VERTEX
8
Parts
10
70.878898
20
40.342866
30
0.000000
0
VERTEX
8
Parts
10
69.660468
20
40.261495
30
0.000000
0
VERTEX
8
Parts
10
68.555178
20
39.796535
30
0.000000
0
VERTEX
8
Parts
10
67.709172
20
39.009463
30
0.000000
0
VERTEX
8
Parts
10
67.234310
20
38.004348
30
0.000000
0
VERTEX
8
Parts
10
67.193381
20
36.914089
30
0.000000
0
VERTEX
8
Parts
10
67.591796
20
35.882843
30
0.000000
0
VERTEX
8
Parts
10
68.376875
20
35.046961
30
0.000000
0
VERTEX
8
Parts
10
69.444814
20
34.516968
30
0.000000
0
VERTEX
8
Parts
10
70.654407
20
34.362940
30
0.000000
0
VERTEX
8
Parts
10
71.845720
20
34.605242
30
0.000000
0
VERTEX
8
Parts
10
72.861233
20
35.211837
30
0.000000
0
VERTEX
8
Parts
10
73.566675
20
36.102520
30
0.000000
0
VERTEX
8
Parts
10
73.876311
20
37.360399
30
0.000000
0
VERTEX
8
Parts
10
73.654167
20
38.433089
30
0.000000
0
VERTEX
8
Parts
10
73.017107
20
39.363946
30
0.000000
0
VERTEX
8
Parts
10
72.049365
20
40.029889
30
0.000000
0
SEQEND
8
0
0
POLYLINE
8
Parts
6
Continuous
70
0
66
 1
10
0.0
20
0.0
30
0.000000
0
VERTEX
8
Parts
10
47.087818
20
34.915878
30
0.000000
42
-0.908462
0
VERTEX
8
Parts
10
46.357830
20
38.966693
30
0.000000
42
-0.016818
0
VERTEX
8
Parts
10
57.301679
20
39.919827
30
0.000000
42
-0.505371
0
VERTEX
8
Parts
10
59.744869
20
37.555871
30
0.000000
42
-0.020988
0
VERTEX
8
Parts
10
59.710252
20
36.253758
30
0.000000
42
-0.306882
0
VERTEX
8
Parts
10
57.952829
20
34.658522
30
0.000000
0
VERTEX
8
Parts
10
47.087818
20
34.915878
30
0.000000
0
SEQEND
8
0
0
ENDBLK
0
BLOCK
8
Parts
2
*R2
70
1
10
218.984474
20
60.098260
3
*R2
0
POLYLINE
8
Parts
6
Continuous
70
0
66
 1
10
0.0
20
0.0
30
0.000000
0
VERTEX
8
Parts
10
151.753098
20
68.111519
30
0.000000
0
VERTEX
8
Parts
10
159.753098
20
67.902032
30
0.000000
0
VERTEX
8
Parts
10
159.753098
20
61.413511
30
0.000000
42
-0.027354
0
VERTEX
8
Parts
10
171.684302
20
62.711272
30
0.000000
0
VERTEX
8
Parts
10
182.004085
20
63.087613
30
0.000000
42
-0.019369
0
VERTEX
8
Parts
10
202.648659
20
62.640617
30
0.000000
0
VERTEX
8
Parts
10
204.253434
20
62.538742
30
0.000000
42
-0.011351
0
VERTEX
8
Parts
10
236.389137
20
59.638170
30
0.000000
0
VERTEX
8
Parts
10
236.389137
20
65.895247
30
0.000000
0
VERTEX
8
Parts
10
244.389137
20
65.685759
30
0.000000
0
VERTEX
8
Parts
10
244.389137
20
58.686644
30
0.000000
0
VERTEX
8
Parts
10
245.211241
20
58.583647
30
0.000000
0
VERTEX
8
Parts
10
245.389137
20
60.073061
30
0.000000
0
VERTEX
8
Parts
10
245.984902
20
60.001902
30
0.000000
0
VERTEX
8
Parts
10
245.453573
20
59.461100
30
0.000000
42
0.001244
0
VERTEX
8
Parts
10
272.314173
20
56.257033
30
0.000000
0
VERTEX
8
Parts
10
290.408947
20
54.463237
30
0.000000
0
VERTEX
8
Parts
10
245.539849
20
52.690702
30
0.000000
0
VERTEX
8
Parts
10
245.988762
20
52.106194
30
0.000000
0
VERTEX
8
Parts
10
245.389137
20
52.085000
30
0.000000
0
VERTEX
8
Parts
10
245.336151
20
53.584064
30
0.000000
0
VERTEX
8
Parts
10
213.699166
20
52.623554
30
0.000000
42
-0.009026
0
VERTEX
8
Parts
10
173.388651
20
52.366046
30
0.000000
42
-0.010616
0
VERTEX
8
Parts
10
155.381961
20
52.917737
30
0.000000
0
VERTEX
8
Parts
10
148.604100
20
53.450026
30
0.000000
0
VERTEX
8
Parts
10
150.891102
20
55.439769
30
0.000000
0
VERTEX
8
Parts
10
147.560000
20
58.337901
30
0.000000
0
VERTEX
8
Parts
10
151.753098
20
59.761362
30
0.000000
0
VERTEX
8
Parts
10
151.753098
20
68.111519
30
0.000000
0
SEQEND
8
0
0
POLYLINE
8
Parts
6
Continuous
70
0
66
 1
10
0.0
20
0.0
30
0.000000
0
VERTEX
8
Parts
10
199.025852
20
59.808722
30
0.000000
42
-0.011629
0
VERTEX
8
Parts
10
212.735720
20
58.964174
30
0.000000
42
-0.759272
0
VERTEX
8
Parts
10
212.483442
20
55.510229
30
0.000000
0
VERTEX
8
Parts
10
199.450307
20
55.180504
30
0.000000
42
-0.471466
0
VERTEX
8
Parts
10
197.401779
20
57.092559
30
0.000000
42
-0.027068
0
VERTEX
8
Parts
10
197.440333
20
58.443385
30
0.000000
42
-0.314551
0
VERTEX
8
Parts
10
199.025852
20
59.808722
30
0.000000
0
SEQEND
8
0
0
POLYLINE
8
Parts
6
Continuous
70
0
66
 1
10
0.0
20
0.0
30
0.000000
0
VERTEX
8
Parts
10
188.947352
20
60.362117
30
0.000000
0
VERTEX
8
Parts
10
187.776886
20
60.675094
30
0.000000
0
VERTEX
8
Parts
10
186.558455
20
60.593723
30
0.000000
0
VERTEX
8
Parts
10
185.453165
20
60.128762
30
0.000000
0
VERTEX
8
Parts
10
184.607159
20
59.341691
30
0.000000
0
VERTEX
8
Parts
10
184.132297
20
58.336576
30
0.000000
0
VERTEX
8
Parts
10
184.091368
20
57.246317
30
0.000000
0
VERTEX
8
Parts
10
184.489783
20
56.215070
30
0.000000
0
VERTEX
8
Parts
10
185.274862
20
55.379189
30
0.000000
0
VERTEX
8
Parts
10
186.342801
20
54.849196
30
0.000000
0
VERTEX
8
Parts
10
187.552394
20
54.695167
30
0.000000
0
VERTEX
8
Parts
10
188.743707
20
54.937470
30
0.000000
0
VERTEX
8
Parts
10
189.759221
20
55.544065
30
0.000000
0
VERTEX
8
Parts
10
190.464662
20
56.434748
30
0.000000
0
VERTEX
8
Parts
10
190.774298
20
57.692627
30
0.000000
0
VERTEX
8
Parts
10
190.552154
20
58.765317
30
0.000000
0
VERTEX
8
Parts
10
189.915094
20
59.696174
30
0.000000
0
VERTEX
8
Parts
10
188.947352
20
60.362117
30
0.000000
0
SEQEND
8
0
0
POLYLINE
8
Parts
6
Continuous
70
0
66
 1
10
0.0
20
0.0
30
0.000000
0
VERTEX
8
Parts
10
175.269793
20
55.536370
30
0.000000
42
-0.027539
0
VERTEX
8
Parts
10
170.715859
20
55.646918
30
0.000000
42
-0.756675
0
VERTEX
8
Parts
10
170.681623
20
59.449592
30
0.000000
42
-0.022477
0
VERTEX
8
Parts
10
175.301946
20
59.778322
30
0.000000
42
-0.365006
0
VERTEX
8
Parts
10
176.948966
20
57.790778
30
0.000000
42
-0.409278
0
VERTEX
8
Parts
10
175.269793
20
55.536370
30
0.000000
0
SEQEND
8
0
0
ENDBLK
0
BLOCK
8
Parts
2
*R3
70
1
10
68.872606
20
68.530237
3
*R3
0
POLYLINE
8
Parts
6
Continuous
70
0
66
 1
10
0.0
20
0.0
30
0.000000
0
VERTEX
8
Parts
10
9.007601
20
76.065474
30
0.000000
0
VERTEX
8
Parts
10
16.257601
20
75.843966
30
0.000000
0
VERTEX
8
Parts
10
16.257601
20
69.672370
30
0.000000
42
-0.021879
0
VERTEX
8
Parts
10
23.784736
20
70.502571
30
0.000000
0
VERTEX
8
Parts
10
33.267829
20
70.964366
30
0.000000
0
VERTEX
8
Parts
10
42.761957
20
71.026356
30
0.000000
0
VERTEX
8
Parts
10
52.430591
20
70.678133
30
0.000000
0
VERTEX
8
Parts
10
67.418207
20
69.601442
30
0.000000
0
VERTEX
8
Parts
10
79.393640
20
68.452105
30
0.000000
0
VERTEX
8
Parts
10
79.393640
20
73.914986
30
0.000000
0
VERTEX
8
Parts
10
86.643640
20
73.693478
30
0.000000
0
VERTEX
8
Parts
10
86.643640
20
67.630816
30
0.000000
0
VERTEX
8
Parts
10
87.470489
20
67.531114
30
0.000000
0
VERTEX
8
Parts
10
87.643640
20
69.021087
30
0.000000
0
VERTEX
8
Parts
10
88.239629
20
68.951827
30
0.000000
0
VERTEX
8
Parts
10
87.850132
20
68.393052
30
0.000000
0
VERTEX
8
Parts
10
97.504976
20
67.240833
30
0.000000
42
0.009133
0
VERTEX
8
Parts
10
132.745212
20
63.345070
30
0.000000
0
VERTEX
8
Parts
10
87.863241
20
61.602858
30
0.000000
0
VERTEX
8
Parts
10
88.243290
20
61.015499
30
0.000000
0
VERTEX
8
Parts
10
87.643640
20
60.995000
30
0.000000
0
VERTEX
8
Parts
10
87.592392
20
62.494124
30
0.000000
42
-0.004130
0
VERTEX
8
Parts
10
54.650083
20
61.605715
30
0.000000
42
-0.006415
0
VERTEX
8
Parts
10
26.613892
20
61.562381
30
0.000000
0
VERTEX
8
Parts
10
15.812424
20
61.851456
30
0.000000
0
VERTEX
8
Parts
10
6.021228
20
62.459966
30
0.000000
0
VERTEX
8
Parts
10
8.145606
20
64.308222
30
0.000000
0
VERTEX
8
Parts
10
5.000000
20
67.044968
30
0.000000
42
-0.028180
0
VERTEX
8
Parts
10
9.007601
20
68.230587
30
0.000000
0
VERTEX
8
Parts
10
9.007601
20
76.065474
30
0.000000
0
SEQEND
8
0
0
POLYLINE
8
Parts
6
Continuous
70
0
66
 1
10
0.0
20
0.0
30
0.000000
0
VERTEX
8
Parts
10
49.428791
20
65.763337
30
0.000000
42
-0.418328
0
VERTEX
8
Parts
10
50.812198
20
67.875109
30
0.000000
42
-0.020155
0
VERTEX
8
Parts
10
55.253578
20
67.682263
30
0.000000
42
-0.784412
0
VERTEX
8
Parts
10
55.063734
20
64.346802
30
0.000000
42
-0.021872
0
VERTEX
8
Parts
10
50.782690
20
64.301321
30
0.000000
42
-0.310116
0
VERTEX
8
Parts
10
49.428791
20
65.763337
30
0.000000
0
SEQEND
8
0
0
POLYLINE
8
Parts
6
Continuous
70
0
66
 1
10
0.0
20
0.0
30
0.000000
0
VERTEX
8
Parts
10
41.539356
20
68.926090
30
0.000000
0
VERTEX
8
Parts
10
40.368889
20
69.239068
30
0.000000
0
VERTEX
8
Parts
10
39.150459
20
69.157697
30
0.000000
0
VERTEX
8
Parts
10
38.045168
20
68.692736
30
0.000000
0
VERTEX
8
Parts
10
37.199162
20
67.905664
30
0.000000
0
VERTEX
8
Parts
10
36.724301
20
66.900550
30
0.000000
0
VERTEX
8
Parts
10
36.683371
20
65.810291
30
0.000000
0
VERTEX
8
Parts
10
37.081786
20
64.779044
30
0.000000
0
VERTEX
8
Parts
10
37.866865
20
63.943163
30
0.000000
0
VERTEX
8
Parts
10
38.934804
20
63.413170
30
0.000000
0
VERTEX
8
Parts
10
40.144397
20
63.259141
30
0.000000
0
VERTEX
8
Parts
10
41.335710
20
63.501444
30
0.000000
0
VERTEX
8
Parts
10
42.351224
20
64.108039
30
0.000000
0
VERTEX
8
Parts
10
43.056666
20
64.998722
30
0.000000
0
VERTEX
8
Parts
10
43.366301
20
66.256601
30
0.000000
0
VERTEX
8
Parts
10
43.144157
20
67.329291
30
0.000000
0
VERTEX
8
Parts
10
42.507098
20
68.260147
30
0.000000
0
VERTEX
8
Parts
10
41.539356
20
68.926090
30
0.000000
0
SEQEND
8
0
0
POLYLINE
8
Parts
6
Continuous
70
0
66
 1
10
0.0
20
0.0
30
0.000000
0
VERTEX
8
Parts
10
28.672042
20
64.646895
30
0.000000
42
-0.017677
0
VERTEX
8
Parts
10
22.849711
20
64.763823
30
0.000000
42
-0.763426
0
VERTEX
8
Parts
10
22.800574
20
67.444584
30
0.000000
42
-0.021354
0
VERTEX
8
Parts
10
28.687126
20
67.871221
30
0.000000
42
-0.397020
0
VERTEX
8
Parts
10
29.847079
20
66.294289
30
0.000000
42
-0.416276
0
VERTEX
8
Parts
10
28.672042
20
64.646895
30
0.000000
0
SEQEND
8
0
0
ENDBLK
0
BLOCK
8
Parts
2
*R4
70
1
10
221.675667
20
82.970698
3
*R4
0
POLYLINE
8
Parts
6
Continuous
70
0
66
 1
10
0.0
20
0.0
30
0.000000
0
VERTEX
8
Parts
10
169.141554
20
90.096395
30
0.000000
0
VERTEX
8
Parts
10
175.641554
20
89.869410
30
0.000000
0
VERTEX
8
Parts
10
175.641554
20
83.838871
30
0.000000
0
VERTEX
8
Parts
10
178.429549
20
84.145911
30
0.000000
0
VERTEX
8
Parts
10
186.887207
20
84.725128
30
0.000000
0
VERTEX
8
Parts
10
195.362772
20
84.904803
30
0.000000
0
VERTEX
8
Parts
10
202.303639
20
84.754067
30
0.000000
0
VERTEX
8
Parts
10
215.202955
20
84.016561
30
0.000000
0
VERTEX
8
Parts
10
225.277593
20
83.161152
30
0.000000
0
VERTEX
8
Parts
10
225.277593
20
88.136081
30
0.000000
0
VERTEX
8
Parts
10
231.777593
20
87.909096
30
0.000000
0
VERTEX
8
Parts
10
231.777593
20
82.478453
30
0.000000
0
VERTEX
8
Parts
10
232.614044
20
82.383118
30
0.000000
0
VERTEX
8
Parts
10
232.777593
20
83.874176
30
0.000000
0
VERTEX
8
Parts
10
233.374016
20
83.808756
30
0.000000
0
VERTEX
8
Parts
10
232.915222
20
83.255481
30
0.000000
42
-0.001297
0
VERTEX
8
Parts
10
264.730663
20
79.506963
30
0.000000
0
VERTEX
8
Parts
10
277.971334
20
78.159763
30
0.000000
0
VERTEX
8
Parts
10
232.822516
20
76.446757
30
0.000000
0
VERTEX
8
Parts
10
233.377282
20
75.864308
30
0.000000
0
VERTEX
8
Parts
10
232.777593
20
75.845000
30
0.000000
0
VERTEX
8
Parts
10
232.729324
20
77.344223
30
0.000000
42
-0.009654
0
VERTEX
8
Parts
10
191.304715
20
76.641179
30
0.000000
42
-0.016968
0
VERTEX
8
Parts
10
166.340171
20
77.420883
30
0.000000
0
VERTEX
8
Parts
10
168.279559
20
79.108193
30
0.000000
0
VERTEX
8
Parts
10
165.380000
20
81.630873
30
0.000000
42
-0.009086
0
VERTEX
8
Parts
10
169.141554
20
82.641956
30
0.000000
0
VERTEX
8
Parts
10
169.141554
20
90.096395
30
0.000000
0
SEQEND
8
0
0
POLYLINE
8
Parts
6
Continuous
70
0
66
 1
10
0.0
20
0.0
30
0.000000
0
VERTEX
8
Parts
10
204.305121
20
80.510515
30
0.000000
42
-0.409278
0
VERTEX
8
Parts
10
205.296908
20
81.952648
30
0.000000
42
-0.009086
0
VERTEX
8
Parts
10
210.632760
20
81.744620
30
0.000000
42
-0.800159
0
VERTEX
8
Parts
10
210.581895
20
79.368971
30
0.000000
42
-0.012084
0
VERTEX
8
Parts
10
205.291737
20
79.300840
30
0.000000
42
-0.354458
0
VERTEX
8
Parts
10
204.305121
20
80.510515
30
0.000000
0
SEQEND
8
0
0
POLYLINE
8
Parts
6
Continuous
70
0
66
 1
10
0.0
20
0.0
30
0.000000
0
VERTEX
8
Parts
10
197.010809
20
83.421479
30
0.000000
0
VERTEX
8
Parts
10
195.840342
20
83.734456
30
0.000000
0
VERTEX
8
Parts
10
194.621912
20
83.653085
30
0.000000
0
VERTEX
8
Parts
10
193.516621
20
83.188124
30
0.000000
0
VERTEX
8
Parts
10
192.670615
20
82.401053
30
0.000000
0
VERTEX
8
Parts
10
192.195754
20
81.395938
30
0.000000
0
VERTEX
8
Parts
10
192.154825
20
80.305679
30
0.000000
0
VERTEX
8
Parts
10
192.553239
20
79.274432
30
0.000000
0
VERTEX
8
Parts
10
193.338318
20
78.438551
30
0.000000
0
VERTEX
8
Parts
10
194.406257
20
77.908558
30
0.000000
0
VERTEX
8
Parts
10
195.615850
20
77.754529
30
0.000000
0
VERTEX
8
Parts
10
196.807163
20
77.996832
30
0.000000
0
VERTEX
8
Parts
10
197.822677
20
78.603427
30
0.000000
0
VERTEX
8
Parts
10
198.528119
20
79.494110
30
0.000000
0
VERTEX
8
Parts
10
198.837754
20
80.751989
30
0.000000
0
VERTEX
8
Parts
10
198.615610
20
81.824679
30
0.000000
0
VERTEX
8
Parts
10
197.978551
20
82.755535
30
0.000000
0
VERTEX
8
Parts
10
197.010809
20
83.421479
30
0.000000
0
SEQEND
8
0
0
POLYLINE
8
Parts
6
Continuous
70
0
66
 1
10
0.0
20
0.0
30
0.000000
0
VERTEX
8
Parts
10
184.909793
20
79.641027
30
0.000000
42
0.003701
0
VERTEX
8
Parts
10
179.639773
20
79.725752
30
0.000000
42
-0.762794
0
VERTEX
8
Parts
10
179.531682
20
81.464104
30
0.000000
42
-0.022321
0
VERTEX
8
Parts
10
184.853286
20
81.772951
30
0.000000
42
-0.393543
0
VERTEX
8
Parts
10
185.624642
20
80.773417
30
0.000000
42
-0.411729
0
VERTEX
8
Parts
10
184.909793
20
79.641027
30
0.000000
0
SEQEND
8
0
0
ENDBLK
0
BLOCK
8
Parts
2
*R5
70
1
10
206.052329
20
16.330125
3
*R5
0
POLYLINE
8
Parts
6
Continuous
70
0
66
 1
10
0.0
20
0.0
30
0.000000
0
VERTEX
8
Parts
10
248.360000
20
25.595251
30
0.000000
42
0.054772
0
VERTEX
8
Parts
10
227.425350
20
20.432962
30
0.000000
42
0.087732
0
VERTEX
8
Parts
10
219.400651
20
15.850259
30
0.000000
42
0.134727
0
VERTEX
8
Parts
10
217.163026
20
12.819486
30
0.000000
42
0.407278
0
VERTEX
8
Parts
10
218.340947
20
10.522914
30
0.000000
42
0.075362
0
VERTEX
8
Parts
10
223.912510
20
8.979098
30
0.000000
42
0.026297
0
VERTEX
8
Parts
10
241.045342
20
7.407244
30
0.000000
42
0.003825
0
VERTEX
8
Parts
10
248.360000
20
7.065000
30
0.000000
0
VERTEX
8
Parts
10
248.360000
20
4.565000
30
0.000000
0
VERTEX
8
Parts
10
192.110000
20
4.565000
30
0.000000
0
VERTEX
8
Parts
10
192.110000
20
28.095251
30
0.000000
0
VERTEX
8
Parts
10
248.360000
20
28.095251
30
0.000000
0
VERTEX
8
Parts
10
248.360000
20
25.595251
30
0.000000
0
SEQEND
8
0
0
ENDBLK
0
BLOCK
8
Parts
2
*R6
70
1
10
110.179867
20
89.874218
3
*R6
0
POLYLINE
8
Parts
6
Continuous
70
0
66
 1
10
0.0
20
0.0
30
0.000000
0
VERTEX
8
Parts
10
149.945000
20
98.583436
30
0.000000
42
0.054772
0
VERTEX
8
Parts
10
130.266429
20
93.730884
30
0.000000
42
0.096588
0
VERTEX
8
Parts
10
122.422111
20
89.147035
30
0.000000
42
0.133848
0
VERTEX
8
Parts
10
120.619844
20
86.574217
30
0.000000
42
0.407278
0
VERTEX
8
Parts
10
121.727090
20
84.415439
30
0.000000
42
0.079985
0
VERTEX
8
Parts
10
127.685242
20
82.847965
30
0.000000
42
0.025723
0
VERTEX
8
Parts
10
149.945000
20
81.165000
30
0.000000
0
VERTEX
8
Parts
10
149.945000
20
78.815000
30
0.000000
0
VERTEX
8
Parts
10
97.070000
20
78.815000
30
0.000000
0
VERTEX
8
Parts
10
97.070000
20
100.933436
30
0.000000
0
VERTEX
8
Parts
10
149.945000
20
100.933436
30
0.000000
0
VERTEX
8
Parts
10
149.945000
20
98.583436
30
0.000000
0
SEQEND
8
0
0
ENDBLK
0
BLOCK
8
Parts
2
*R7
70
1
10
35.099468
20
95.108310
3
*R7
0
POLYLINE
8
Parts
6
Continuous
70
0
66
 1
10
0.0
20
0.0
30
0.000000
0
VERTEX
8
Parts
10
72.320000
20
103.261621
30
0.000000
42
0.054772
0
VERTEX
8
Parts
10
53.897508
20
98.718806
30
0.000000
42
0.102925
0
VERTEX
8
Parts
10
46.294354
20
94.174298
30
0.000000
42
0.159128
0
VERTEX
8
Parts
10
44.831111
20
91.781739
30
0.000000
42
0.375493
0
VERTEX
8
Parts
10
45.903234
20
89.997965
30
0.000000
42
0.079342
0
VERTEX
8
Parts
10
52.227446
20
88.420606
30
0.000000
42
0.022318
0
VERTEX
8
Parts
10
72.320000
20
86.955000
30
0.000000
0
VERTEX
8
Parts
10
72.320000
20
84.755000
30
0.000000
0
VERTEX
8
Parts
10
22.820000
20
84.755000
30
0.000000
0
VERTEX
8
Parts
10
22.820000
20
105.461621
30
0.000000
0
VERTEX
8
Parts
10
72.320000
20
105.461621
30
0.000000
0
VERTEX
8
Parts
10
72.320000
20
103.261621
30
0.000000
0
SEQEND
8
0
0
ENDBLK
0
BLOCK
8
Parts
2
*R8
70
1
10
254.040043
20
103.312403
3
*R8
0
POLYLINE
8
Parts
6
Continuous
70
0
66
 1
10
0.0
20
0.0
30
0.000000
0
VERTEX
8
Parts
10
288.725000
20
110.909806
30
0.000000
42
0.060879
0
VERTEX
8
Parts
10
270.732168
20
106.337728
30
0.000000
42
0.104707
0
VERTEX
8
Parts
10
264.251787
20
102.210392
30
0.000000
42
0.213119
0
VERTEX
8
Parts
10
263.107416
20
99.774190
30
0.000000
42
0.292756
0
VERTEX
8
Parts
10
264.358377
20
98.428782
30
0.000000
42
0.071297
0
VERTEX
8
Parts
10
270.775825
20
96.976965
30
0.000000
42
0.020397
0
VERTEX
8
Parts
10
288.725000
20
95.715000
30
0.000000
0
VERTEX
8
Parts
10
288.725000
20
93.665000
30
0.000000
0
VERTEX
8
Parts
10
242.600000
20
93.665000
30
0.000000
0
VERTEX
8
Parts
10
242.600000
20
112.959806
30
0.000000
0
VERTEX
8
Parts
10
288.725000
20
112.959806
30
0.000000
0
VERTEX
8
Parts
10
288.725000
20
110.909806
30
0.000000
0
SEQEND
8
0
0
ENDBLK
0
BLOCK
8
Parts
2
*R9
70
1
10
202.105000
20
108.546495
3
*R9
0
POLYLINE
8
Parts
6
Continuous
70
0
66
 1
10
0.0
20
0.0
30
0.000000
0
VERTEX
8
Parts
10
223.980000
20
115.587991
30
0.000000
42
0.060879
0
VERTEX
8
Parts
10
207.303716
20
111.350455
30
0.000000
42
0.114467
0
VERTEX
8
Parts
10
201.109054
20
107.313880
30
0.000000
42
0.243848
0
VERTEX
8
Parts
10
200.268428
20
105.067085
30
0.000000
42
0.236818
0
VERTEX
8
Parts
10
201.642229
20
103.911288
30
0.000000
42
0.064476
0
VERTEX
8
Parts
10
208.145001
20
102.576756
30
0.000000
42
0.017599
0
VERTEX
8
Parts
10
223.980000
20
101.505000
30
0.000000
0
VERTEX
8
Parts
10
223.980000
20
99.605000
30
0.000000
0
VERTEX
8
Parts
10
180.230000
20
99.605000
30
0.000000
0
VERTEX
8
Parts
10
180.230000
20
117.487991
30
0.000000
0
VERTEX
8
Parts
10
223.980000
20
117.487991
30
0.000000
0
VERTEX
8
Parts
10
223.980000
20
115.587991
30
0.000000
0
SEQEND
8
0
0
ENDBLK
0
BLOCK
8
Parts
2
*R10
70
1
10
103.157500
20
119.720588
3
*R10
0
POLYLINE
8
Parts
6
Continuous
70
0
66
 1
10
0.0
20
0.0
30
0.000000
0
VERTEX
8
Parts
10
124.095000
20
126.206175
30
0.000000
42
0.065340
0
VERTEX
8
Parts
10
108.092362
20
122.021398
30
0.000000
42
0.124531
0
VERTEX
8
Parts
10
102.727528
20
118.204278
30
0.000000
42
0.370896
0
VERTEX
8
Parts
10
102.549674
20
116.017343
30
0.000000
42
0.118732
0
VERTEX
8
Parts
10
106.493502
20
114.660824
30
0.000000
42
0.030536
0
VERTEX
8
Parts
10
120.524201
20
113.393616
30
0.000000
42
0.002613
0
VERTEX
8
Parts
10
124.095000
20
113.235000
30
0.000000
0
VERTEX
8
Parts
10
124.095000
20
111.485000
30
0.000000
0
VERTEX
8
Parts
10
82.220000
20
111.485000
30
0.000000
0
VERTEX
8
Parts
10
82.220000
20
127.956175
30
0.000000
0
VERTEX
8
Parts
10
124.095000
20
127.956175
30
0.000000
0
VERTEX
8
Parts
10
124.095000
20
126.206175
30
0.000000
0
SEQEND
8
0
0
ENDBLK
0
BLOCK
8
Parts
2
*R11
70
1
10
25.000000
20
124.954680
3
*R11
0
POLYLINE
8
Parts
6
Continuous
70
0
66
 1
10
0.0
20
0.0
30
0.000000
0
VERTEX
8
Parts
10
45.000000
20
130.884360
30
0.000000
42
0.065340
0
VERTEX
8
Parts
10
30.369017
20
127.058279
30
0.000000
42
0.124531
0
VERTEX
8
Parts
10
25.464026
20
123.568340
30
0.000000
42
0.370896
0
VERTEX
8
Parts
10
25.301416
20
121.568856
30
0.000000
42
0.118732
0
VERTEX
8
Parts
10
28.907202
20
120.328611
30
0.000000
42
0.030536
0
VERTEX
8
Parts
10
41.735269
20
119.170020
30
0.000000
42
0.002613
0
VERTEX
8
Parts
10
45.000000
20
119.025000
30
0.000000
0
VERTEX
8
Parts
10
45.000000
20
117.425000
30
0.000000
0
VERTEX
8
Parts
10
5.000000
20
117.425000
30
0.000000
0
VERTEX
8
Parts
10
5.000000
20
132.484360
30
0.000000
0
VERTEX
8
Parts
10
45.000000
20
132.484360
30
0.000000
0
VERTEX
8
Parts
10
45.000000
20
130.884360
30
0.000000
0
SEQEND
8
0
0
ENDBLK
0
BLOCK
8
Parts
2
*R12
70
1
10
252.752500
20
130.188773
3
*R12
0
POLYLINE
8
Parts
6
Continuous
70
0
66
 1
10
0.0
20
0.0
30
0.000000
0
VERTEX
8
Parts
10
271.815000
20
135.562545
30
0.000000
42
0.065340
0
VERTEX
8
Parts
10
258.555672
20
132.095159
30
0.000000
42
0.136588
0
VERTEX
8
Parts
10
254.004061
20
128.776567
30
0.000000
42
0.562656
0
VERTEX
8
Parts
10
254.580071
20
126.734504
30
0.000000
42
0.075115
0
VERTEX
8
Parts
10
260.414858
20
125.556570
30
0.000000
42
0.015850
0
VERTEX
8
Parts
10
271.815000
20
124.815000
30
0.000000
0
VERTEX
8
Parts
10
271.815000
20
123.365000
30
0.000000
0
VERTEX
8
Parts
10
233.690000
20
123.365000
30
0.000000
0
VERTEX
8
Parts
10
233.690000
20
137.012545
30
0.000000
0
VERTEX
8
Parts
10
271.815000
20
137.012545
30
0.000000
0
VERTEX
8
Parts
10
271.815000
20
135.562545
30
0.000000
0
SEQEND
8
0
0
ENDBLK
0
BLOCK
8
Parts
2
*R13
70
1
10
153.805000
20
132.452865
3
*R13
0
POLYLINE
8
Parts
6
Continuous
70
0
66
 1
10
0.0
20
0.0
30
0.000000
0
VERTEX
8
Parts
10
171.930000
20
137.270730
30
0.000000
42
0.072023
0
VERTEX
8
Parts
10
159.607479
20
133.958784
30
0.000000
42
0.152217
0
VERTEX
8
Parts
10
155.805198
20
130.907643
30
0.000000
42
0.508259
0
VERTEX
8
Parts
10
156.477995
20
129.355935
30
0.000000
42
0.075115
0
VERTEX
8
Parts
10
161.709183
20
128.299856
30
0.000000
42
0.015850
0
VERTEX
8
Parts
10
171.930000
20
127.635000
30
0.000000
0
VERTEX
8
Parts
10
171.930000
20
126.335000
30
0.000000
0
VERTEX
8
Parts
10
135.680000
20
126.335000
30
0.000000
0
VERTEX
8
Parts
10
135.680000
20
138.570730
30
0.000000
0
VERTEX
8
Parts
10
171.930000
20
138.570730
30
0.000000
0
VERTEX
8
Parts
10
171.930000
20
137.270730
30
0.000000
0
SEQEND
8
0
0
ENDBLK
0
ENDSEC
0
SECTION
2
ENTITIES
0
POLYLINE
8
0
6
Continuous
70
0
66
 1
10
0.0
20
0.0
30
0.000000
0
VERTEX
8
0
10
0.000000
20
0.000000
30
0.000000
0
VERTEX
8
0
10
297.000000
20
0.000000
30
0.000000
0
VERTEX
8
0
10
297.000000
20
210.000000
30
0.000000
0
VERTEX
8
0
10
0.000000
20
210.000000
30
0.000000
0
VERTEX
8
0
10
0.000000
20
0.000000
30
0.000000
0
SEQEND
8
0
0
INSERT
8
Parts
6
Continuous
2
*R
10
91.547786
20
13.697722
41
1.000000
42
1.000000
50
0.000000
0
TEXT
8
Imported_labels
6
Continuous
7
Standard
10
56.966324
20
8.299712
72
2
73
0
11
56.966324
21
8.299712
40
3.333333
41
1.000000
50
0.000000
1
#05
0
INSERT
8
Parts
6
Continuous
2
*R1
10
104.782576
20
39.823617
41
1.000000
42
1.000000
50
0.000000
0
TEXT
8
Imported_labels
6
Continuous
7
Standard
10
73.066150
20
34.358537
72
2
73
0
11
73.066150
21
34.358537
40
3.333333
41
1.000000
50
0.000000
1
#06
0
INSERT
8
Parts
6
Continuous
2
*R2
10
218.984474
20
60.098260
41
1.000000
42
1.000000
50
0.000000
0
TEXT
8
Imported_labels
6
Continuous
7
Standard
10
190.114137
20
54.690502
72
2
73
0
11
190.114137
21
54.690502
40
3.333333
41
1.000000
50
0.000000
1
#07
0
INSERT
8
Parts
6
Continuous
2
*R3
10
68.872606
20
68.530237
41
1.000000
42
1.000000
50
0.000000
0
TEXT
8
Imported_labels
6
Continuous
7
Standard
10
42.856140
20
63.254330
72
2
73
0
11
42.856140
21
63.254330
40
3.333333
41
1.000000
50
0.000000
1
#08
0
INSERT
8
Parts
6
Continuous
2
*R4
10
221.675667
20
82.970698
41
1.000000
42
1.000000
50
0.000000
0
TEXT
8
Imported_labels
6
Continuous
7
Standard
10
198.477593
20
77.749675
72
2
73
0
11
198.477593
21
77.749675
40
3.333333
41
1.000000
50
0.000000
1
#09
0
INSERT
8
Parts
6
Continuous
2
*R5
10
206.052329
20
16.330125
41
1.000000
42
1.000000
50
0.000000
0
INSERT
8
Parts
6
Continuous
2
*R6
10
110.179867
20
89.874218
41
1.000000
42
1.000000
50
0.000000
0
INSERT
8
Parts
6
Continuous
2
*R7
10
35.099468
20
95.108310
41
1.000000
42
1.000000
50
0.000000
0
INSERT
8
Parts
6
Continuous
2
*R8
10
254.040043
20
103.312403
41
1.000000
42
1.000000
50
0.000000
0
INSERT
8
Parts
6
Continuous
2
*R9
10
202.105000
20
108.546495
41
1.000000
42
1.000000
50
0.000000
0
INSERT
8
Parts
6
Continuous
2
*R10
10
103.157500
20
119.720588
41
1.000000
42
1.000000
50
0.000000
0
INSERT
8
Parts
6
Continuous
2
*R11
10
25.000000
20
124.954680
41
1.000000
42
1.000000
50
0.000000
0
INSERT
8
Parts
6
Continuous
2
*R12
10
252.752500
20
130.188773
41
1.000000
42
1.000000
50
0.000000
0
INSERT
8
Parts
6
Continuous
2
*R13
10
153.805000
20
132.452865
41
1.000000
42
1.000000
50
0.000000
0
ENDSEC
0
EOF
