  0
SECTION
  2
HEADER
  9
$ACADVER
  1
AC1004
  9
$INSBASE
 10
0.0
 20
0.0
  9
$EXTMIN
 10
-10.000000
 20
-62.500000
  9
$EXTMAX
 10
270.000000
 20
62.500000
  9
$LIMMIN
 10
-9.184627
 20
4.296983
  9
$LIMMAX
 10
44.815373
 20
28.296983
  9
$VIEWCTR
 10
6.0
 20
4.5
  9
$VIEWSIZE
 40
9.0
  9
$SNAPMODE
 70
     1
  9
$SNAPUNIT
 10
0.0625
 20
0.0625
  9
$SNAPBASE
 10
0.0
 20
0.0
  9
$SNAPANG
 50
0.0
  9
$SNAPSTYLE
 70
     0
  9
$SNAPISOPAIR
 70
     0
  9
$GRIDMODE
 70
     0
  9
$GRIDUNIT
 10
0.0625
 20
0.0625
  9
$ORTHOMODE
 70
     0
  9
$REGENMODE
 70
     1
  9
$FILLMODE
 70
     1
  9
$QTEXTMODE
 70
     0
  9
$DRAGMODE
 70
     2
  9
$LTSCALE
 40
0.44
  9
$OSMODE
 70
     0
  9
$ATTMODE
 70
     1
  9
$TEXTSIZE
 40
0.2
  9
$TRACEWID
 40
0.05
  9
$TEXTSTYLE
  7
STANDARD
  9
$CLAYER
  8
LAYER01
  9
$CELTYPE
  6
CONTINUOUS
  9
$CECOLOR
 62
     7
  9
$DIMSCALE
 40
1.0
  9
$DIMASZ
 40
0.18
  9
$DIMEXO
 40
0.0625
  9
$DIMDLI
 40
0.38
  9
$DIMRND
 40
0.0
  9
$DIMDLE
 40
0.0
  9
$DIMEXE
 40
0.18
  9
$DIMTP
 40
0.0
  9
$DIMTM
 40
0.0
  9
$DIMTXT
 40
0.18
  9
$DIMCEN
 40
0.09
  9
$DIMTSZ
 40
0.0
  9
$DIMTOL
 70
     0
  9
$DIMLIM
 70
     0
  9
$DIMTIH
 70
     1
  9
$DIMTOH
 70
     1
  9
$DIMSE1
 70
     0
  9
$DIMSE2
 70
     0
  9
$DIMTAD
 70
     0
  9
$DIMZIN
 70
     0
  9
$DIMBLK
  1

  9
$DIMASO
 70
     1
  9
$DIMSHO
 70
     1
  9
$DIMPOST
  1

  9
$DIMAPOST
  1

  9
$DIMALT
 70
     0
  9
$DIMALTD
 70
     2
  9
$DIMALTF
 40
25.4
  9
$DIMLFAC
 40
1.0
  9
$LUNITS
 70
     2
  9
$LUPREC
 70
     4
  9
$AXISMODE
 70
     0
  9
$AXISUNIT
 10
0.0
 20
0.0
  9
$SKETCHINC
 40
0.1
  9
$FILLETRAD
 40
0.125
  9
$AUNITS
 70
     0
  9
$AUPREC
 70
     0
  9
$MENU
  1
acad
  9
$ELEVATION
 40
0.0
  9
$THICKNESS
 40
0.0
  9
$VIEWDIR
 10
0.0
 20
0.0
 30
1.0
  9
$LIMCHECK
 70
     0
  9
$BLIPMODE
 70
     1
  9
$CHAMFERA
 40
0.5
  9
$CHAMFERB
 40
0.5
  9
$FASTZOOM
 70
     1
  9
$SKPOLY
 70
     0
  9
$TDCREATE
 40
0.0
  9
$TDUPDATE
 40
0.0
  9
$TDINDWG
 40
0.0
  9
$TDUSRTIMER
 40
0.0
  9
$USRTIMER
 70
     1
  9
$ANGBASE
 50
0.0
  9
$ANGDIR
 70
     0
  9
$PDMODE
 70
     0
  9
$PDSIZE
 40
0.0
  9
$PLINEWID
 40
0.008
  9
$COORDS
 70
     2
  9
$SPLFRAME
 70
     0
  9
$SPLINESEGS
 70
    10
  9
$ATTDIA
 70
     0
  9
$ATTREQ
 70
     1
  9
$USERI1
 70
     0
  9
$USERI2
 70
     0
  9
$USERI3
 70
     0
  9
$USERI4
 70
     0
  9
$USERI5
 70
     0
  9
$USERR1
 40
0.0
  9
$USERR2
 40
0.0
  9
$USERR3
 40
0.0
  9
$USERR4
 40
0.0
  9
$USERR5
 40
0.0
  0
ENDSEC
  0
SECTION
  2
TABLES
  0
TABLE
  2
LTYPE
 70
    11
  0
LTYPE
  2
CONTINUOUS
 70
     0
  3
Solid line
 72
    65
 73
     0
 40
0.0
  0
LTYPE
  2
DASHED
 70
     0
  3
__ __ __ __ __ __ __ __ __ __ __ __ __ __ __
 72
    65
 73
     2
 40
0.75
 49
0.5
 49
-0.25
  0
LTYPE
  2
HIDDEN
 70
     0
  3
_ _ _ _ _ _ _ _ _ _ _ _ _ _ _ _ _ _ _ _ _ _ 
 72
    65
 73
     2
 40
0.25
 49
0.125
 49
-0.125
  0
LTYPE
  2
CENTER
 70
     0
  3
____ _ ____ _ ____ _ ____ _ ____ _ ____ _ __
 72
    65
 73
     4
 40
2.0
 49
1.25
 49
-0.25
 49
0.25
 49
-0.25
  0
LTYPE
  2
PHANTOM
 70
     0
  3
_____ _ _ _____ _ _ _____ _ _ _____ _ _ ____
 72
    65
 73
     6
 40
2.5
 49
1.25
 49
-0.25
 49
0.25
 49
-0.25
 49
0.25
 49
-0.25
  0
LTYPE
  2
DOT
 70
     0
  3
............................................
 72
    65
 73
     2
 40
0.25
 49
0.0
 49
-0.25
  0
LTYPE
  2
DASHDOT
 70
     0
  3
__ . __ . __ . __ . __ . __ . __ . __ . __ .
 72
    65
 73
     4
 40
1.0
 49
0.5
 49
-0.25
 49
0.0
 49
-0.25
  0
LTYPE
  2
BORDER
 70
     0
  3
__ __ . __ __ . __ __ . __ __ . __ __ . __ _
 72
    65
 73
     6
 40
1.75
 49
0.5
 49
-0.25
 49
0.5
 49
-0.25
 49
0.0
 49
-0.25
  0
LTYPE
  2
DIVIDE
 70
     0
  3
__ . . __ . . __ . . __ . . __ . . __ . . __
 72
    65
 73
     6
 40
1.25
 49
0.5
 49
-0.25
 49
0.0
 49
-0.25
 49
0.0
 49
-0.25
  0
LTYPE
  2
DOTS
 70
     0
  3
close                                       
 72
    65
 73
     2
 40
0.1
 49
0.05
 49
-0.05
  0
LTYPE
  2
CLOSE
 70
     0
  3
                                            
 72
    65
 73
     0
 40
0.0
  0
ENDTAB
  0
TABLE
  2
LAYER
 70
    11
  0
LAYER
  2
0
 70
     0
 62
     7
  6
CONTINUOUS
  0
LAYER
  2
LAYER01
 70
     0
 62
     7
  6
CONTINUOUS
  0
LAYER
  2
LAYER02
 70
     0
 62
     7
  6
CONTINUOUS
  0
LAYER
  2
LAYER03
 70
     0
 62
     7
  6
CONTINUOUS
  0
LAYER
  2
LAYER04
 70
     0
 62
     7
  6
CONTINUOUS
  0
LAYER
  2
LAYER05
 70
     0
 62
     7
  6
CONTINUOUS
  0
LAYER
  2
LAYER06
 70
     0
 62
     7
  6
CONTINUOUS
  0
LAYER
  2
LAYER07
 70
     0
 62
     7
  6
CONTINUOUS
  0
LAYER
  2
LAYER08
 70
     0
 62
     7
  6
CONTINUOUS
  0
LAYER
  2
LAYER09
 70
     0
 62
     7
  6
CONTINUOUS
  0
LAYER
  2
LAYER10
 70
     0
 62
     7
  6
CONTINUOUS
  0
ENDTAB
  0
TABLE
  2
STYLE
 70
     1
  0
STYLE
  2
STANDARD
 70
     0
 40
0.0
 41
1.0
 50
0.0
 71
     0
 42
0.0
  3
txt
  4

  0
ENDTAB
  0
TABLE
  2
VIEW
 70
     0
  0
ENDTAB
  0
ENDSEC
  0
SECTION
  2
BLOCKS
  0
ENDSEC
  0
SECTION
  2
ENTITIES
  0
POLYLINE
  8
7
  6
CONTINUOUS
 66
  1
  0
VERTEX
  8
7
  10
19.00000
  20
178.14053
  0
VERTEX
  8
7
  10
269.00000
  20
178.14053
  0
SEQEND
  0
POLYLINE
  8
7
  6
CONTINUOUS
 66
  1
  0
VERTEX
  8
7
  10
269.00000
  20
178.14053
  0
VERTEX
  8
7
  10
268.44573
  20
178.15684
  0
VERTEX
  8
7
  10
267.89167
  20
178.17404
  0
VERTEX
  8
7
  10
267.33750
  20
178.19303
  0
VERTEX
  8
7
  10
266.21203
  20
178.23919
  0
VERTEX
  8
7
  10
265.08729
  20
178.29411
  0
VERTEX
  8
7
  10
263.96250
  20
178.35553
  0
VERTEX
  8
7
  10
262.64200
  20
178.43342
  0
VERTEX
  8
7
  10
261.32229
  20
178.51681
  0
VERTEX
  8
7
  10
260.00250
  20
178.60553
  0
VERTEX
  8
7
  10
258.32268
  20
178.72566
  0
VERTEX
  8
7
  10
256.64390
  20
178.85272
  0
VERTEX
  8
7
  10
254.96500
  20
178.98553
  0
VERTEX
  8
7
  10
252.82835
  20
179.16127
  0
VERTEX
  8
7
  10
250.69298
  20
179.34385
  0
VERTEX
  8
7
  10
248.55750
  20
179.53303
  0
VERTEX
  8
7
  10
246.09494
  20
179.75884
  0
VERTEX
  8
7
  10
243.63384
  20
179.99168
  0
VERTEX
  8
7
  10
241.17251
  20
180.23053
  0
VERTEX
  8
7
  10
238.20480
  20
180.52519
  0
VERTEX
  8
7
  10
235.23877
  20
180.82678
  0
VERTEX
  8
7
  10
232.27250
  20
181.13553
  0
VERTEX
  8
7
  10
229.09297
  20
181.47444
  0
VERTEX
  8
7
  10
225.91534
  20
181.82114
  0
VERTEX
  8
7
  10
222.73751
  20
182.17553
  0
VERTEX
  8
7
  10
218.95369
  20
182.60686
  0
VERTEX
  8
7
  10
215.17207
  20
183.04656
  0
VERTEX
  8
7
  10
211.39000
  20
183.49303
  0
VERTEX
  8
7
  10
207.44411
  20
183.96421
  0
VERTEX
  8
7
  10
203.50000
  20
184.43947
  0
VERTEX
  8
7
  10
199.55500
  20
184.91803
  0
VERTEX
  8
7
  10
195.54468
  20
185.40653
  0
VERTEX
  8
7
  10
191.53565
  20
185.89473
  0
VERTEX
  8
7
  10
187.52501
  20
186.38053
  0
VERTEX
  8
7
  10
183.18948
  20
186.90044
  0
VERTEX
  8
7
  10
178.85461
  20
187.41387
  0
VERTEX
  8
7
  10
174.51750
  20
187.92053
  0
VERTEX
  8
7
  10
170.31237
  20
188.40420
  0
VERTEX
  8
7
  10
166.10753
  20
188.87826
  0
VERTEX
  8
7
  10
161.90000
  20
189.34053
  0
VERTEX
  8
7
  10
157.89018
  20
189.76788
  0
VERTEX
  8
7
  10
153.88022
  20
190.18138
  0
VERTEX
  8
7
  10
149.86750
  20
190.58053
  0
VERTEX
  8
7
  10
145.76104
  20
190.97328
  0
VERTEX
  8
7
  10
141.65442
  20
191.34992
  0
VERTEX
  8
7
  10
137.54500
  20
191.71053
  0
VERTEX
  8
7
  10
133.40538
  20
192.05671
  0
VERTEX
  8
7
  10
129.26550
  20
192.38282
  0
VERTEX
  8
7
  10
125.12250
  20
192.68553
  0
VERTEX
  8
7
  10
121.01630
  20
192.95916
  0
VERTEX
  8
7
  10
116.90965
  20
193.20466
  0
VERTEX
  8
7
  10
112.80000
  20
193.42053
  0
VERTEX
  8
7
  10
108.88824
  20
193.59700
  0
VERTEX
  8
7
  10
104.97652
  20
193.74402
  0
VERTEX
  8
7
  10
101.06250
  20
193.86053
  0
VERTEX
  8
7
  10
97.18256
  20
193.94464
  0
VERTEX
  8
7
  10
93.30330
  20
193.99541
  0
VERTEX
  8
7
  10
89.42250
  20
194.01053
  0
VERTEX
  8
7
  10
85.73745
  20
193.98997
  0
VERTEX
  8
7
  10
82.05395
  20
193.93383
  0
VERTEX
  8
7
  10
78.37000
  20
193.84053
  0
VERTEX
  8
7
  10
74.99634
  20
193.72102
  0
VERTEX
  8
7
  10
71.62522
  20
193.56625
  0
VERTEX
  8
7
  10
68.25500
  20
193.37303
  0
VERTEX
  8
7
  10
65.23420
  20
193.16452
  0
VERTEX
  8
7
  10
62.21709
  20
192.91981
  0
VERTEX
  8
7
  10
59.20250
  20
192.63553
  0
VERTEX
  8
7
  10
56.45077
  20
192.33853
  0
VERTEX
  8
7
  10
53.70436
  20
192.00303
  0
VERTEX
  8
7
  10
50.96250
  20
191.62553
  0
VERTEX
  8
7
  10
48.49843
  20
191.24683
  0
VERTEX
  8
7
  10
46.04178
  20
190.82756
  0
VERTEX
  8
7
  10
43.59250
  20
190.36303
  0
VERTEX
  8
7
  10
41.43236
  20
189.91074
  0
VERTEX
  8
7
  10
39.28219
  20
189.41631
  0
VERTEX
  8
7
  10
37.14250
  20
188.87553
  0
VERTEX
  8
7
  10
35.29735
  20
188.36587
  0
VERTEX
  8
7
  10
33.46513
  20
187.81366
  0
VERTEX
  8
7
  10
31.64750
  20
187.21303
  0
VERTEX
  8
7
  10
30.17723
  20
186.68271
  0
VERTEX
  8
7
  10
28.72355
  20
186.11017
  0
VERTEX
  8
7
  10
27.29000
  20
185.48803
  0
VERTEX
  8
7
  10
26.33654
  20
185.03650
  0
VERTEX
  8
7
  10
25.39805
  20
184.55550
  0
VERTEX
  8
7
  10
24.47750
  20
184.04053
  0
VERTEX
  8
7
  10
23.78912
  20
183.62216
  0
VERTEX
  8
7
  10
23.11592
  20
183.18030
  0
VERTEX
  8
7
  10
22.46000
  20
182.71303
  0
VERTEX
  8
7
  10
21.99911
  20
182.35929
  0
VERTEX
  8
7
  10
21.55029
  20
181.99059
  0
VERTEX
  8
7
  10
21.11500
  20
181.60553
  0
VERTEX
  8
7
  10
20.72604
  20
181.23356
  0
VERTEX
  8
7
  10
20.35399
  20
180.84507
  0
VERTEX
  8
7
  10
20.00250
  20
180.43803
  0
VERTEX
  8
7
  10
19.76326
  20
180.13014
  0
VERTEX
  8
7
  10
19.54168
  20
179.80934
  0
VERTEX
  8
7
  10
19.34250
  20
179.47303
  0
VERTEX
  8
7
  10
19.22938
  20
179.24771
  0
VERTEX
  8
7
  10
19.13392
  20
179.01521
  0
VERTEX
  8
7
  10
19.06250
  20
178.77553
  0
VERTEX
  8
7
  10
19.02429
  20
178.56681
  0
VERTEX
  8
7
  10
19.00459
  20
178.35466
  0
VERTEX
  8
7
  10
19.00000
  20
178.14053
  0
VERTEX
  8
7
  10
19.00667
  20
177.95860
  0
VERTEX
  8
7
  10
19.02731
  20
177.77872
  0
VERTEX
  8
7
  10
19.06750
  20
177.60303
  0
VERTEX
  8
7
  10
19.15481
  20
177.38467
  0
VERTEX
  8
7
  10
19.27723
  20
177.18162
  0
VERTEX
  8
7
  10
19.42750
  20
176.99803
  0
VERTEX
  8
7
  10
19.68299
  20
176.76988
  0
VERTEX
  8
7
  10
19.96901
  20
176.57991
  0
VERTEX
  8
7
  10
20.27250
  20
176.41553
  0
VERTEX
  8
7
  10
20.71648
  20
176.20608
  0
VERTEX
  8
7
  10
21.16835
  20
176.02055
  0
VERTEX
  8
7
  10
21.62750
  20
175.85553
  0
VERTEX
  8
7
  10
22.20864
  20
175.67395
  0
VERTEX
  8
7
  10
22.79695
  20
175.51416
  0
VERTEX
  8
7
  10
23.39000
  20
175.37053
  0
VERTEX
  8
7
  10
24.25420
  20
175.18230
  0
VERTEX
  8
7
  10
25.12174
  20
175.01417
  0
VERTEX
  8
7
  10
25.99250
  20
174.86303
  0
VERTEX
  8
7
  10
27.00112
  20
174.70625
  0
VERTEX
  8
7
  10
28.01201
  20
174.56564
  0
VERTEX
  8
7
  10
29.02500
  20
174.43803
  0
VERTEX
  8
7
  10
30.23060
  20
174.29979
  0
VERTEX
  8
7
  10
31.43712
  20
174.17391
  0
VERTEX
  8
7
  10
32.64500
  20
174.05803
  0
VERTEX
  8
7
  10
34.29080
  20
173.91322
  0
VERTEX
  8
7
  10
35.93721
  20
173.78142
  0
VERTEX
  8
7
  10
37.58500
  20
173.66053
  0
VERTEX
  8
7
  10
40.19161
  20
173.48801
  0
VERTEX
  8
7
  10
42.79866
  20
173.33568
  0
VERTEX
  8
7
  10
45.40750
  20
173.20053
  0
VERTEX
  8
7
  10
48.39465
  20
173.06377
  0
VERTEX
  8
7
  10
51.38157
  20
172.94379
  0
VERTEX
  8
7
  10
54.37000
  20
172.83803
  0
VERTEX
  8
7
  10
57.69749
  20
172.73457
  0
VERTEX
  8
7
  10
61.02430
  20
172.64496
  0
VERTEX
  8
7
  10
64.35250
  20
172.56803
  0
VERTEX
  8
7
  10
67.97768
  20
172.49762
  0
VERTEX
  8
7
  10
71.60191
  20
172.44040
  0
VERTEX
  8
7
  10
75.22750
  20
172.39553
  0
VERTEX
  8
7
  10
79.11034
  20
172.36040
  0
VERTEX
  8
7
  10
82.99201
  20
172.33810
  0
VERTEX
  8
7
  10
86.87500
  20
172.32803
  0
VERTEX
  8
7
  10
90.97047
  20
172.32999
  0
VERTEX
  8
7
  10
95.06459
  20
172.34375
  0
VERTEX
  8
7
  10
99.16000
  20
172.36803
  0
VERTEX
  8
7
  10
103.42306
  20
172.40332
  0
VERTEX
  8
7
  10
107.68465
  20
172.44840
  0
VERTEX
  8
7
  10
111.94750
  20
172.50303
  0
VERTEX
  8
7
  10
116.32896
  20
172.56883
  0
VERTEX
  8
7
  10
120.70885
  20
172.64397
  0
VERTEX
  8
7
  10
125.09000
  20
172.72803
  0
VERTEX
  8
7
  10
129.54066
  20
172.82202
  0
VERTEX
  8
7
  10
133.98969
  20
172.92393
  0
VERTEX
  8
7
  10
138.44000
  20
173.03303
  0
VERTEX
  8
7
  10
142.90983
  20
173.14917
  0
VERTEX
  8
7
  10
147.37803
  20
173.27166
  0
VERTEX
  8
7
  10
151.84750
  20
173.40053
  0
VERTEX
  8
7
  10
156.28398
  20
173.53455
  0
VERTEX
  8
7
  10
160.71884
  20
173.67394
  0
VERTEX
  8
7
  10
165.15500
  20
173.81803
  0
VERTEX
  8
7
  10
169.50975
  20
173.96330
  0
VERTEX
  8
7
  10
173.86296
  20
174.11176
  0
VERTEX
  8
7
  10
178.21750
  20
174.26303
  0
VERTEX
  8
7
  10
182.43889
  20
174.41199
  0
VERTEX
  8
7
  10
186.65881
  20
174.56348
  0
VERTEX
  8
7
  10
190.88000
  20
174.71803
  0
VERTEX
  8
7
  10
194.92133
  20
174.86898
  0
VERTEX
  8
7
  10
198.96127
  20
175.02185
  0
VERTEX
  8
7
  10
203.00249
  20
175.17553
  0
VERTEX
  8
7
  10
206.81711
  20
175.32054
  0
VERTEX
  8
7
  10
210.63046
  20
175.46603
  0
VERTEX
  8
7
  10
214.44500
  20
175.61303
  0
VERTEX
  8
7
  10
217.98878
  20
175.75152
  0
VERTEX
  8
7
  10
221.53134
  20
175.89162
  0
VERTEX
  8
7
  10
225.07500
  20
176.03303
  0
VERTEX
  8
7
  10
228.30703
  20
176.16276
  0
VERTEX
  8
7
  10
231.53799
  20
176.29284
  0
VERTEX
  8
7
  10
234.77000
  20
176.42303
  0
VERTEX
  8
7
  10
237.65290
  20
176.53928
  0
VERTEX
  8
7
  10
240.53480
  20
176.65700
  0
VERTEX
  8
7
  10
243.41750
  20
176.77803
  0
VERTEX
  8
7
  10
246.02796
  20
176.89165
  0
VERTEX
  8
7
  10
248.63739
  20
177.00917
  0
VERTEX
  8
7
  10
251.24751
  20
177.13053
  0
VERTEX
  8
7
  10
253.28535
  20
177.22790
  0
VERTEX
  8
7
  10
255.32242
  20
177.32776
  0
VERTEX
  8
7
  10
257.36000
  20
177.43053
  0
VERTEX
  8
7
  10
258.92534
  20
177.51174
  0
VERTEX
  8
7
  10
260.49002
  20
177.59562
  0
VERTEX
  8
7
  10
262.05500
  20
177.68303
  0
VERTEX
  8
7
  10
263.21273
  20
177.75033
  0
VERTEX
  8
7
  10
264.36997
  20
177.81960
  0
VERTEX
  8
7
  10
265.52750
  20
177.89053
  0
VERTEX
  8
7
  10
266.22861
  20
177.93444
  0
VERTEX
  8
7
  10
266.92934
  20
177.98052
  0
VERTEX
  8
7
  10
267.63001
  20
178.03053
  0
VERTEX
  8
7
  10
268.08682
  20
178.06587
  0
VERTEX
  8
7
  10
268.54337
  20
178.10280
  0
VERTEX
  8
7
  10
269.00000
  20
178.14053
  0
VERTEX
  8
7
  10
269.00000
  20
178.14053
  0
SEQEND
  0
ENDSEC
  0
EOF
